solid Benchy Barge
facet normal -3.0760475549347637e-16 1.0 1.413041962093821e-30
  outer loop
    vertex 174.75484814844614 135.4131759805857 2.2
    vertex 187.95484826765545 135.4131759805857 3.2085387148327585e-16
    vertex 174.75484814844614 135.4131759805857 3.2085387148327585e-16
  endloop
endfacet
facet normal -3.0760475549347637e-16 1.0 1.413041962093821e-30
  outer loop
    vertex 187.95484826765545 135.4131759805857 3.2085387148327585e-16
    vertex 174.75484814844614 135.4131759805857 2.2
    vertex 187.95484826765545 135.4131759805857 2.2
  endloop
endfacet
facet normal -0.1305261922200443 0.9914448613738115 1.3981376652773424e-17
  outer loop
    vertex 181.00544249716242 139.31717584607594 1.8203273696637112e-16
    vertex 181.35484820805078 139.36317598058568 2.199999999999996
    vertex 181.35484820805078 139.36317598058568 1.4460595858247036e-16
  endloop
endfacet
facet normal -0.1305261922200443 0.9914448613738115 1.3981376652773424e-17
  outer loop
    vertex 181.35484820805078 139.36317598058568 2.199999999999996
    vertex 181.00544249716242 139.31717584607594 1.8203273696637112e-16
    vertex 181.00544249716242 139.31717584607594 2.199999999999996
  endloop
endfacet
facet normal 0.1305261922200443 0.9914448613738115 -1.3981388023635343e-17
  outer loop
    vertex 181.35484820805078 139.36317598058568 1.4460595858247036e-16
    vertex 181.70425391893917 139.31717584607594 2.199999999999996
    vertex 181.70425391893917 139.31717584607594 1.0717918072614432e-16
  endloop
endfacet
facet normal 0.1305261922200443 0.9914448613738115 -1.3981388023635343e-17
  outer loop
    vertex 181.70425391893917 139.31717584607594 2.199999999999996
    vertex 181.35484820805078 139.36317598058568 1.4460595858247036e-16
    vertex 181.35484820805078 139.36317598058568 2.199999999999996
  endloop
endfacet
facet normal 0.3826834323651033 0.9238795325112812 -4.0991344211573276e-17
  outer loop
    vertex 181.70425391893917 139.31717584607594 1.0717918072614432e-16
    vertex 182.02984820805082 139.18231027569468 2.199999999999996
    vertex 182.02984820805082 139.18231027569468 7.230297645762667e-17
  endloop
endfacet
facet normal 0.3826834323651033 0.9238795325112812 -4.0991344211573276e-17
  outer loop
    vertex 182.02984820805082 139.18231027569468 2.199999999999996
    vertex 181.70425391893917 139.31717584607594 1.0717918072614432e-16
    vertex 181.70425391893917 139.31717584607594 2.199999999999996
  endloop
endfacet
facet normal 0.7933533402912326 0.6087614290087239 -8.498046749776074e-17
  outer loop
    vertex 182.30944236265262 138.9677701351875 4.2354101462164376e-17
    vertex 182.52398250315977 138.68817598058573 2.199999999999996
    vertex 182.52398250315977 138.68817598058573 1.9373522077841997e-17
  endloop
endfacet
facet normal 0.7933533402912326 0.6087614290087239 -8.498046749776074e-17
  outer loop
    vertex 182.52398250315977 138.68817598058573 2.199999999999996
    vertex 182.30944236265262 138.9677701351875 4.2354101462164376e-17
    vertex 182.30944236265262 138.9677701351875 2.199999999999996
  endloop
endfacet
facet normal 0.9238795325112868 0.38268343236508967 -9.896184853952409e-17
  outer loop
    vertex 182.52398250315977 138.68817598058573 1.9373522077841997e-17
    vertex 182.65884807354104 138.3625816914741 2.199999999999996
    vertex 182.65884807354104 138.3625816914741 4.927326812498527e-18
  endloop
endfacet
facet normal 0.9238795325112868 0.38268343236508967 -9.896184853952409e-17
  outer loop
    vertex 182.65884807354104 138.3625816914741 2.199999999999996
    vertex 182.52398250315977 138.68817598058573 1.9373522077841997e-17
    vertex 182.52398250315977 138.68817598058573 2.199999999999996
  endloop
endfacet
facet normal 0.9914448613738113 0.13052619222004638 -1.0619914314550596e-16
  outer loop
    vertex 182.65884807354104 138.3625816914741 4.927326812498527e-18
    vertex 182.70484820805075 138.0131759805857 2.199999999999996
    vertex 182.70484820805075 138.0131759805857 0.0
  endloop
endfacet
facet normal 0.9914448613738113 0.13052619222004638 -1.0619914314550596e-16
  outer loop
    vertex 182.70484820805075 138.0131759805857 2.199999999999996
    vertex 182.65884807354104 138.3625816914741 4.927326812498527e-18
    vertex 182.65884807354104 138.3625816914741 2.199999999999996
  endloop
endfacet
facet normal 0.9914448613738113 -0.13052619222004638 -1.0619914164850358e-16
  outer loop
    vertex 182.70484820805075 138.0131759805857 0.0
    vertex 182.65884807354104 137.66377026969732 2.199999999999996
    vertex 182.65884807354104 137.66377026969732 4.927330819826142e-18
  endloop
endfacet
facet normal 0.9914448613738113 -0.13052619222004638 -1.0619914164850358e-16
  outer loop
    vertex 182.65884807354104 137.66377026969732 2.199999999999996
    vertex 182.70484820805075 138.0131759805857 0.0
    vertex 182.70484820805075 138.0131759805857 2.199999999999996
  endloop
endfacet
facet normal 0.9238795325112859 -0.382683432365092 -9.896184415053511e-17
  outer loop
    vertex 182.65884807354104 137.66377026969732 4.927330819826142e-18
    vertex 182.52398250315977 137.3381759805857 2.199999999999996
    vertex 182.52398250315977 137.3381759805857 1.9373529819404526e-17
  endloop
endfacet
facet normal 0.9238795325112859 -0.382683432365092 -9.896184415053511e-17
  outer loop
    vertex 182.52398250315977 137.3381759805857 2.199999999999996
    vertex 182.65884807354104 137.66377026969732 4.927330819826142e-18
    vertex 182.65884807354104 137.66377026969732 2.199999999999996
  endloop
endfacet
facet normal 0.7933533402912287 -0.6087614290087293 -8.498046051588727e-17
  outer loop
    vertex 182.52398250315977 137.3381759805857 1.9373529819404526e-17
    vertex 182.30944236265262 137.05858182598385 2.199999999999996
    vertex 182.30944236265262 137.05858182598385 4.235411241038647e-17
  endloop
endfacet
facet normal 0.7933533402912287 -0.6087614290087293 -8.498046051588727e-17
  outer loop
    vertex 182.30944236265262 137.05858182598385 2.199999999999996
    vertex 182.52398250315977 137.3381759805857 1.9373529819404526e-17
    vertex 182.52398250315977 137.3381759805857 2.199999999999996
  endloop
endfacet
facet normal -1.0 0.0 0.0
  outer loop
    vertex 187.95484826765545 140.61317598058568 2.2
    vertex 187.95484826765545 135.4131759805857 3.2085387148327585e-16
    vertex 187.95484826765545 135.4131759805857 2.2
  endloop
endfacet
facet normal -1.0 0.0 0.0
  outer loop
    vertex 187.95484826765545 135.4131759805857 3.2085387148327585e-16
    vertex 187.95484826765545 140.61317598058568 2.2
    vertex 187.95484826765545 140.61317598058568 3.2085387148327585e-16
  endloop
endfacet
facet normal 0.6087614290087239 0.7933533402912326 -6.520780803288848e-17
  outer loop
    vertex 182.02984820805082 139.18231027569468 7.230297645762667e-17
    vertex 182.30944236265262 138.9677701351875 2.199999999999996
    vertex 182.30944236265262 138.9677701351875 4.2354101462164376e-17
  endloop
endfacet
facet normal 0.6087614290087239 0.7933533402912326 -6.520780803288848e-17
  outer loop
    vertex 182.30944236265262 138.9677701351875 2.199999999999996
    vertex 182.02984820805082 139.18231027569468 7.230297645762667e-17
    vertex 182.02984820805082 139.18231027569468 2.199999999999996
  endloop
endfacet
facet normal 0.6087614290087239 -0.7933533402912326 -6.520779893393438e-17
  outer loop
    vertex 182.30944236265262 137.05858182598385 2.199999999999996
    vertex 182.02984820805082 136.8440416854767 7.23029898664056e-17
    vertex 182.30944236265262 137.05858182598385 4.235411241038647e-17
  endloop
endfacet
facet normal 0.6087614290087239 -0.7933533402912326 -6.520779893393438e-17
  outer loop
    vertex 182.02984820805082 136.8440416854767 7.23029898664056e-17
    vertex 182.30944236265262 137.05858182598385 2.199999999999996
    vertex 182.02984820805082 136.8440416854767 2.199999999999996
  endloop
endfacet
facet normal 0.3826834323651033 -0.9238795325112812 -4.0991333615616807e-17
  outer loop
    vertex 182.02984820805082 136.8440416854767 2.199999999999996
    vertex 181.70425391893917 136.70917611509543 1.0717919568169341e-16
    vertex 182.02984820805082 136.8440416854767 7.23029898664056e-17
  endloop
endfacet
facet normal 0.3826834323651033 -0.9238795325112812 -4.0991333615616807e-17
  outer loop
    vertex 181.70425391893917 136.70917611509543 1.0717919568169341e-16
    vertex 182.02984820805082 136.8440416854767 2.199999999999996
    vertex 181.70425391893917 136.70917611509543 2.199999999999996
  endloop
endfacet
facet normal -0.1305261922200443 -0.9914448613738115 1.3981388023635343e-17
  outer loop
    vertex 181.35484820805078 136.66317598058572 2.199999999999996
    vertex 181.00544249716242 136.70917611509543 1.820327519219202e-16
    vertex 181.35484820805078 136.66317598058572 1.4460597406559417e-16
  endloop
endfacet
facet normal -0.1305261922200443 -0.9914448613738115 1.3981388023635343e-17
  outer loop
    vertex 181.00544249716242 136.70917611509543 1.820327519219202e-16
    vertex 181.35484820805078 136.66317598058572 2.199999999999996
    vertex 181.00544249716242 136.70917611509543 2.199999999999996
  endloop
endfacet
facet normal -0.3826834323651033 -0.9238795325112812 4.0991344211573276e-17
  outer loop
    vertex 181.00544249716242 136.70917611509543 2.199999999999996
    vertex 180.67984820805077 136.8440416854767 2.1690895619043787e-16
    vertex 181.00544249716242 136.70917611509543 1.820327519219202e-16
  endloop
endfacet
facet normal -0.3826834323651033 -0.9238795325112812 4.0991344211573276e-17
  outer loop
    vertex 180.67984820805077 136.8440416854767 2.1690895619043787e-16
    vertex 181.00544249716242 136.70917611509543 2.199999999999996
    vertex 180.67984820805077 136.8440416854767 2.199999999999996
  endloop
endfacet
facet normal -1.0711553061039444e-16 -5.734490320653927e-24 -1.0
  outer loop
    vertex 180.05084834256056 138.3625816914741 2.8428460182823836e-16
    vertex 180.05084834256056 137.66377026969732 2.84284605835566e-16
    vertex 180.0048482080508 138.0131759805857 2.8921193264806452e-16
  endloop
endfacet
facet normal -1.0711553061039444e-16 -5.734490320653927e-24 -1.0
  outer loop
    vertex 180.05084834256056 137.66377026969732 2.84284605835566e-16
    vertex 180.05084834256056 138.3625816914741 2.8428460182823836e-16
    vertex 180.1857139129418 138.68817598058573 2.6983840282866e-16
  endloop
endfacet
facet normal -1.0711553061039444e-16 -5.734490320653927e-24 -1.0
  outer loop
    vertex 180.05084834256056 137.66377026969732 2.84284605835566e-16
    vertex 180.1857139129418 138.68817598058573 2.6983840282866e-16
    vertex 180.1857139129418 137.3381759805857 2.6983841057022254e-16
  endloop
endfacet
facet normal -1.0711553061039444e-16 -5.734490320653927e-24 -1.0
  outer loop
    vertex 180.1857139129418 137.3381759805857 2.6983841057022254e-16
    vertex 180.1857139129418 138.68817598058573 2.6983840282866e-16
    vertex 180.40025405344898 138.9677701351875 2.4685782023767805e-16
  endloop
endfacet
facet normal -1.0711553061039444e-16 -5.734490320653927e-24 -1.0
  outer loop
    vertex 180.1857139129418 137.3381759805857 2.6983841057022254e-16
    vertex 180.40025405344898 138.9677701351875 2.4685782023767805e-16
    vertex 180.40025405344898 137.05858182598385 2.4685783118590015e-16
  endloop
endfacet
facet normal -1.0711553061039444e-16 -5.734490320653927e-24 -1.0
  outer loop
    vertex 180.40025405344898 137.05858182598385 2.4685783118590015e-16
    vertex 180.40025405344898 138.9677701351875 2.4685782023767805e-16
    vertex 180.67984820805077 139.18231027569468 2.1690894278165894e-16
  endloop
endfacet
facet normal -1.0711553061039444e-16 -5.734490320653927e-24 -1.0
  outer loop
    vertex 180.40025405344898 137.05858182598385 2.4685783118590015e-16
    vertex 180.67984820805077 139.18231027569468 2.1690894278165894e-16
    vertex 180.67984820805077 136.8440416854767 2.1690895619043787e-16
  endloop
endfacet
facet normal -1.0711553061039444e-16 -5.734490320653927e-24 -1.0
  outer loop
    vertex 180.67984820805077 136.8440416854767 2.1690895619043787e-16
    vertex 180.67984820805077 139.18231027569468 2.1690894278165894e-16
    vertex 181.00544249716242 139.31717584607594 1.8203273696637112e-16
  endloop
endfacet
facet normal -1.0711553061039444e-16 -5.734490320653927e-24 -1.0
  outer loop
    vertex 180.67984820805077 136.8440416854767 2.1690895619043787e-16
    vertex 181.00544249716242 139.31717584607594 1.8203273696637112e-16
    vertex 181.00544249716242 136.70917611509543 1.820327519219202e-16
  endloop
endfacet
facet normal -1.0711553061039444e-16 -5.734490320653927e-24 -1.0
  outer loop
    vertex 181.00544249716242 136.70917611509543 1.820327519219202e-16
    vertex 181.00544249716242 139.31717584607594 1.8203273696637112e-16
    vertex 181.35484820805078 139.36317598058568 1.4460595858247036e-16
  endloop
endfacet
facet normal -1.0711553061039444e-16 -5.734490320653927e-24 -1.0
  outer loop
    vertex 181.00544249716242 136.70917611509543 1.820327519219202e-16
    vertex 181.35484820805078 139.36317598058568 1.4460595858247036e-16
    vertex 181.35484820805078 136.66317598058572 1.4460597406559417e-16
  endloop
endfacet
facet normal -1.0711553061039444e-16 -5.734490320653927e-24 -1.0
  outer loop
    vertex 181.35484820805078 136.66317598058572 1.4460597406559417e-16
    vertex 181.35484820805078 139.36317598058568 1.4460595858247036e-16
    vertex 181.70425391893917 139.31717584607594 1.0717918072614432e-16
  endloop
endfacet
facet normal -1.0711553061039444e-16 -5.734490320653927e-24 -1.0
  outer loop
    vertex 181.35484820805078 136.66317598058572 1.4460597406559417e-16
    vertex 181.70425391893917 139.31717584607594 1.0717918072614432e-16
    vertex 181.70425391893917 136.70917611509543 1.0717919568169341e-16
  endloop
endfacet
facet normal -1.0711553061039444e-16 -5.734490320653927e-24 -1.0
  outer loop
    vertex 181.70425391893917 136.70917611509543 1.0717919568169341e-16
    vertex 181.70425391893917 139.31717584607594 1.0717918072614432e-16
    vertex 182.02984820805082 139.18231027569468 7.230297645762667e-17
  endloop
endfacet
facet normal -1.0711553061039444e-16 -5.734490320653927e-24 -1.0
  outer loop
    vertex 181.70425391893917 136.70917611509543 1.0717919568169341e-16
    vertex 182.02984820805082 139.18231027569468 7.230297645762667e-17
    vertex 182.02984820805082 136.8440416854767 7.23029898664056e-17
  endloop
endfacet
facet normal -1.0711553061039444e-16 -5.734490320653927e-24 -1.0
  outer loop
    vertex 182.02984820805082 136.8440416854767 7.23029898664056e-17
    vertex 182.02984820805082 139.18231027569468 7.230297645762667e-17
    vertex 182.30944236265262 138.9677701351875 4.2354101462164376e-17
  endloop
endfacet
facet normal -1.0711553061039444e-16 -5.734490320653927e-24 -1.0
  outer loop
    vertex 182.02984820805082 136.8440416854767 7.23029898664056e-17
    vertex 182.30944236265262 138.9677701351875 4.2354101462164376e-17
    vertex 182.30944236265262 137.05858182598385 4.235411241038647e-17
  endloop
endfacet
facet normal -1.0711553061039444e-16 -5.734490320653927e-24 -1.0
  outer loop
    vertex 182.30944236265262 137.05858182598385 4.235411241038647e-17
    vertex 182.30944236265262 138.9677701351875 4.2354101462164376e-17
    vertex 182.52398250315977 138.68817598058573 1.9373522077841997e-17
  endloop
endfacet
facet normal -1.0711553061039444e-16 -5.734490320653927e-24 -1.0
  outer loop
    vertex 182.30944236265262 137.05858182598385 4.235411241038647e-17
    vertex 182.52398250315977 138.68817598058573 1.9373522077841997e-17
    vertex 182.52398250315977 137.3381759805857 1.9373529819404526e-17
  endloop
endfacet
facet normal -1.0711553061039444e-16 -5.734490320653927e-24 -1.0
  outer loop
    vertex 182.52398250315977 137.3381759805857 1.9373529819404526e-17
    vertex 182.52398250315977 138.68817598058573 1.9373522077841997e-17
    vertex 182.65884807354104 138.3625816914741 4.927326812498527e-18
  endloop
endfacet
facet normal -1.0711553061039444e-16 -5.734490320653927e-24 -1.0
  outer loop
    vertex 182.52398250315977 137.3381759805857 1.9373529819404526e-17
    vertex 182.65884807354104 138.3625816914741 4.927326812498527e-18
    vertex 182.65884807354104 137.66377026969732 4.927330819826142e-18
  endloop
endfacet
facet normal -1.0711553061039444e-16 -5.734490320653927e-24 -1.0
  outer loop
    vertex 182.65884807354104 137.66377026969732 4.927330819826142e-18
    vertex 182.65884807354104 138.3625816914741 4.927326812498527e-18
    vertex 182.70484820805075 138.0131759805857 0.0
  endloop
endfacet
facet normal 0.1305261922200443 -0.9914448613738115 -1.3981376652773424e-17
  outer loop
    vertex 181.70425391893917 136.70917611509543 2.199999999999996
    vertex 181.35484820805078 136.66317598058572 1.4460597406559417e-16
    vertex 181.70425391893917 136.70917611509543 1.0717919568169341e-16
  endloop
endfacet
facet normal 0.1305261922200443 -0.9914448613738115 -1.3981376652773424e-17
  outer loop
    vertex 181.35484820805078 136.66317598058572 1.4460597406559417e-16
    vertex 181.70425391893917 136.70917611509543 2.199999999999996
    vertex 181.35484820805078 136.66317598058572 2.199999999999996
  endloop
endfacet
facet normal 1.0 0.0 0.0
  outer loop
    vertex 174.75484814844614 140.61317598058568 3.2085387148327585e-16
    vertex 174.75484814844614 135.4131759805857 2.2
    vertex 174.75484814844614 135.4131759805857 3.2085387148327585e-16
  endloop
endfacet
facet normal 1.0 0.0 0.0
  outer loop
    vertex 174.75484814844614 135.4131759805857 2.2
    vertex 174.75484814844614 140.61317598058568 3.2085387148327585e-16
    vertex 174.75484814844614 140.61317598058568 2.2
  endloop
endfacet
facet normal 0.0 0.0 -1.0
  outer loop
    vertex 174.75484814844614 140.61317598058568 2.2
    vertex 180.67984820805077 139.18231027569468 2.199999999999996
    vertex 174.75484814844614 135.4131759805857 2.2
  endloop
endfacet
facet normal 0.0 0.0 -1.0
  outer loop
    vertex 180.67984820805077 139.18231027569468 2.199999999999996
    vertex 174.75484814844614 140.61317598058568 2.2
    vertex 181.00544249716242 139.31717584607594 2.199999999999996
  endloop
endfacet
facet normal 0.0 0.0 -1.0
  outer loop
    vertex 181.00544249716242 139.31717584607594 2.199999999999996
    vertex 174.75484814844614 140.61317598058568 2.2
    vertex 187.95484826765545 140.61317598058568 2.2
  endloop
endfacet
facet normal 0.0 0.0 -1.0
  outer loop
    vertex 174.75484814844614 135.4131759805857 2.2
    vertex 180.67984820805077 139.18231027569468 2.199999999999996
    vertex 180.40025405344898 138.9677701351875 2.199999999999996
  endloop
endfacet
facet normal 0.0 0.0 -1.0
  outer loop
    vertex 174.75484814844614 135.4131759805857 2.2
    vertex 180.40025405344898 138.9677701351875 2.199999999999996
    vertex 180.1857139129418 138.68817598058573 2.199999999999996
  endloop
endfacet
facet normal 0.0 0.0 -1.0
  outer loop
    vertex 174.75484814844614 135.4131759805857 2.2
    vertex 180.1857139129418 138.68817598058573 2.199999999999996
    vertex 180.05084834256056 138.3625816914741 2.199999999999996
  endloop
endfacet
facet normal 0.0 0.0 -1.0
  outer loop
    vertex 174.75484814844614 135.4131759805857 2.2
    vertex 180.05084834256056 138.3625816914741 2.199999999999996
    vertex 180.0048482080508 138.0131759805857 2.199999999999996
  endloop
endfacet
facet normal 0.0 0.0 -1.0
  outer loop
    vertex 181.00544249716242 139.31717584607594 2.199999999999996
    vertex 187.95484826765545 140.61317598058568 2.2
    vertex 181.35484820805078 139.36317598058568 2.199999999999996
  endloop
endfacet
facet normal 0.0 0.0 -1.0
  outer loop
    vertex 181.35484820805078 139.36317598058568 2.199999999999996
    vertex 187.95484826765545 140.61317598058568 2.2
    vertex 181.70425391893917 139.31717584607594 2.199999999999996
  endloop
endfacet
facet normal 0.0 0.0 -1.0
  outer loop
    vertex 181.70425391893917 139.31717584607594 2.199999999999996
    vertex 187.95484826765545 140.61317598058568 2.2
    vertex 182.02984820805082 139.18231027569468 2.199999999999996
  endloop
endfacet
facet normal 0.0 0.0 -1.0
  outer loop
    vertex 182.02984820805082 139.18231027569468 2.199999999999996
    vertex 187.95484826765545 140.61317598058568 2.2
    vertex 182.30944236265262 138.9677701351875 2.199999999999996
  endloop
endfacet
facet normal 0.0 0.0 -1.0
  outer loop
    vertex 182.30944236265262 138.9677701351875 2.199999999999996
    vertex 187.95484826765545 140.61317598058568 2.2
    vertex 182.52398250315977 138.68817598058573 2.199999999999996
  endloop
endfacet
facet normal 0.0 0.0 -1.0
  outer loop
    vertex 182.52398250315977 138.68817598058573 2.199999999999996
    vertex 187.95484826765545 140.61317598058568 2.2
    vertex 182.65884807354104 138.3625816914741 2.199999999999996
  endloop
endfacet
facet normal 0.0 0.0 -1.0
  outer loop
    vertex 182.65884807354104 138.3625816914741 2.199999999999996
    vertex 187.95484826765545 140.61317598058568 2.2
    vertex 182.70484820805075 138.0131759805857 2.199999999999996
  endloop
endfacet
facet normal 0.0 0.0 -1.0
  outer loop
    vertex 174.75484814844614 135.4131759805857 2.2
    vertex 181.00544249716242 136.70917611509543 2.199999999999996
    vertex 187.95484826765545 135.4131759805857 2.2
  endloop
endfacet
facet normal 0.0 0.0 -1.0
  outer loop
    vertex 181.00544249716242 136.70917611509543 2.199999999999996
    vertex 174.75484814844614 135.4131759805857 2.2
    vertex 180.67984820805077 136.8440416854767 2.199999999999996
  endloop
endfacet
facet normal 0.0 0.0 -1.0
  outer loop
    vertex 180.67984820805077 136.8440416854767 2.199999999999996
    vertex 174.75484814844614 135.4131759805857 2.2
    vertex 180.40025405344898 137.05858182598385 2.199999999999996
  endloop
endfacet
facet normal 0.0 0.0 -1.0
  outer loop
    vertex 180.40025405344898 137.05858182598385 2.199999999999996
    vertex 174.75484814844614 135.4131759805857 2.2
    vertex 180.1857139129418 137.3381759805857 2.199999999999996
  endloop
endfacet
facet normal 0.0 0.0 -1.0
  outer loop
    vertex 180.1857139129418 137.3381759805857 2.199999999999996
    vertex 174.75484814844614 135.4131759805857 2.2
    vertex 180.05084834256056 137.66377026969732 2.199999999999996
  endloop
endfacet
facet normal 0.0 0.0 -1.0
  outer loop
    vertex 180.05084834256056 137.66377026969732 2.199999999999996
    vertex 174.75484814844614 135.4131759805857 2.2
    vertex 180.0048482080508 138.0131759805857 2.199999999999996
  endloop
endfacet
facet normal 0.0 0.0 -1.0
  outer loop
    vertex 187.95484826765545 135.4131759805857 2.2
    vertex 181.00544249716242 136.70917611509543 2.199999999999996
    vertex 181.35484820805078 136.66317598058572 2.199999999999996
  endloop
endfacet
facet normal 0.0 0.0 -1.0
  outer loop
    vertex 187.95484826765545 135.4131759805857 2.2
    vertex 181.35484820805078 136.66317598058572 2.199999999999996
    vertex 181.70425391893917 136.70917611509543 2.199999999999996
  endloop
endfacet
facet normal 0.0 0.0 -1.0
  outer loop
    vertex 187.95484826765545 135.4131759805857 2.2
    vertex 181.70425391893917 136.70917611509543 2.199999999999996
    vertex 182.02984820805082 136.8440416854767 2.199999999999996
  endloop
endfacet
facet normal 0.0 0.0 -1.0
  outer loop
    vertex 187.95484826765545 135.4131759805857 2.2
    vertex 182.02984820805082 136.8440416854767 2.199999999999996
    vertex 182.30944236265262 137.05858182598385 2.199999999999996
  endloop
endfacet
facet normal 0.0 0.0 -1.0
  outer loop
    vertex 187.95484826765545 135.4131759805857 2.2
    vertex 182.30944236265262 137.05858182598385 2.199999999999996
    vertex 182.52398250315977 137.3381759805857 2.199999999999996
  endloop
endfacet
facet normal 0.0 0.0 -1.0
  outer loop
    vertex 187.95484826765545 135.4131759805857 2.2
    vertex 182.52398250315977 137.3381759805857 2.199999999999996
    vertex 182.65884807354104 137.66377026969732 2.199999999999996
  endloop
endfacet
facet normal 0.0 0.0 -1.0
  outer loop
    vertex 187.95484826765545 135.4131759805857 2.2
    vertex 182.65884807354104 137.66377026969732 2.199999999999996
    vertex 182.70484820805075 138.0131759805857 2.199999999999996
  endloop
endfacet
facet normal 0.0 0.0 -1.0
  outer loop
    vertex 187.95484826765545 135.4131759805857 2.2
    vertex 182.70484820805075 138.0131759805857 2.199999999999996
    vertex 187.95484826765545 140.61317598058568 2.2
  endloop
endfacet
facet normal 0.0 -1.0 0.0
  outer loop
    vertex 187.95484826765545 140.61317598058568 2.2
    vertex 174.75484814844614 140.61317598058568 3.2085387148327585e-16
    vertex 187.95484826765545 140.61317598058568 3.2085387148327585e-16
  endloop
endfacet
facet normal 0.0 -1.0 0.0
  outer loop
    vertex 174.75484814844614 140.61317598058568 3.2085387148327585e-16
    vertex 187.95484826765545 140.61317598058568 2.2
    vertex 174.75484814844614 140.61317598058568 2.2
  endloop
endfacet
facet normal -0.7933533402912404 -0.6087614290087138 8.498046749776157e-17
  outer loop
    vertex 180.1857139129418 137.3381759805857 2.199999999999996
    vertex 180.40025405344898 137.05858182598385 2.4685783118590015e-16
    vertex 180.40025405344898 137.05858182598385 2.199999999999996
  endloop
endfacet
facet normal -0.7933533402912404 -0.6087614290087138 8.498046749776157e-17
  outer loop
    vertex 180.40025405344898 137.05858182598385 2.4685783118590015e-16
    vertex 180.1857139129418 137.3381759805857 2.199999999999996
    vertex 180.1857139129418 137.3381759805857 2.6983841057022254e-16
  endloop
endfacet
facet normal -0.7933533402912287 0.6087614290087293 8.498046051588727e-17
  outer loop
    vertex 180.40025405344898 138.9677701351875 2.199999999999996
    vertex 180.1857139129418 138.68817598058573 2.6983840282866e-16
    vertex 180.1857139129418 138.68817598058573 2.199999999999996
  endloop
endfacet
facet normal -0.7933533402912287 0.6087614290087293 8.498046051588727e-17
  outer loop
    vertex 180.1857139129418 138.68817598058573 2.6983840282866e-16
    vertex 180.40025405344898 138.9677701351875 2.199999999999996
    vertex 180.40025405344898 138.9677701351875 2.4685782023767805e-16
  endloop
endfacet
facet normal -0.9238795325112859 0.382683432365092 9.896184415053511e-17
  outer loop
    vertex 180.1857139129418 138.68817598058573 2.199999999999996
    vertex 180.05084834256056 138.3625816914741 2.8428460182823836e-16
    vertex 180.05084834256056 138.3625816914741 2.199999999999996
  endloop
endfacet
facet normal -0.9238795325112859 0.382683432365092 9.896184415053511e-17
  outer loop
    vertex 180.05084834256056 138.3625816914741 2.8428460182823836e-16
    vertex 180.1857139129418 138.68817598058573 2.199999999999996
    vertex 180.1857139129418 138.68817598058573 2.6983840282866e-16
  endloop
endfacet
facet normal -0.3826834323651033 0.9238795325112812 4.0991333615616807e-17
  outer loop
    vertex 180.67984820805077 139.18231027569468 2.1690894278165894e-16
    vertex 181.00544249716242 139.31717584607594 2.199999999999996
    vertex 181.00544249716242 139.31717584607594 1.8203273696637112e-16
  endloop
endfacet
facet normal -0.3826834323651033 0.9238795325112812 4.0991333615616807e-17
  outer loop
    vertex 181.00544249716242 139.31717584607594 2.199999999999996
    vertex 180.67984820805077 139.18231027569468 2.1690894278165894e-16
    vertex 180.67984820805077 139.18231027569468 2.199999999999996
  endloop
endfacet
facet normal -0.6087614290087239 -0.7933533402912326 6.520780803288848e-17
  outer loop
    vertex 180.67984820805077 136.8440416854767 2.199999999999996
    vertex 180.40025405344898 137.05858182598385 2.4685783118590015e-16
    vertex 180.67984820805077 136.8440416854767 2.1690895619043787e-16
  endloop
endfacet
facet normal -0.6087614290087239 -0.7933533402912326 6.520780803288848e-17
  outer loop
    vertex 180.40025405344898 137.05858182598385 2.4685783118590015e-16
    vertex 180.67984820805077 136.8440416854767 2.199999999999996
    vertex 180.40025405344898 137.05858182598385 2.199999999999996
  endloop
endfacet
facet normal -0.9914448613738113 0.13052619222004638 1.0619914164850358e-16
  outer loop
    vertex 180.05084834256056 138.3625816914741 2.199999999999996
    vertex 180.0048482080508 138.0131759805857 2.8921193264806452e-16
    vertex 180.0048482080508 138.0131759805857 2.199999999999996
  endloop
endfacet
facet normal -0.9914448613738113 0.13052619222004638 1.0619914164850358e-16
  outer loop
    vertex 180.0048482080508 138.0131759805857 2.8921193264806452e-16
    vertex 180.05084834256056 138.3625816914741 2.199999999999996
    vertex 180.05084834256056 138.3625816914741 2.8428460182823836e-16
  endloop
endfacet
facet normal -0.9238795325112812 -0.3826834323651033 9.896184853952349e-17
  outer loop
    vertex 180.05084834256056 137.66377026969732 2.199999999999996
    vertex 180.1857139129418 137.3381759805857 2.6983841057022254e-16
    vertex 180.1857139129418 137.3381759805857 2.199999999999996
  endloop
endfacet
facet normal -0.9238795325112812 -0.3826834323651033 9.896184853952349e-17
  outer loop
    vertex 180.1857139129418 137.3381759805857 2.6983841057022254e-16
    vertex 180.05084834256056 137.66377026969732 2.199999999999996
    vertex 180.05084834256056 137.66377026969732 2.84284605835566e-16
  endloop
endfacet
facet normal -0.6087614290087239 0.7933533402912326 6.520779893393438e-17
  outer loop
    vertex 180.40025405344898 138.9677701351875 2.4685782023767805e-16
    vertex 180.67984820805077 139.18231027569468 2.199999999999996
    vertex 180.67984820805077 139.18231027569468 2.1690894278165894e-16
  endloop
endfacet
facet normal -0.6087614290087239 0.7933533402912326 6.520779893393438e-17
  outer loop
    vertex 180.67984820805077 139.18231027569468 2.199999999999996
    vertex 180.40025405344898 138.9677701351875 2.4685782023767805e-16
    vertex 180.40025405344898 138.9677701351875 2.199999999999996
  endloop
endfacet
facet normal -0.9914448613738113 -0.13052619222004638 1.0619914314550596e-16
  outer loop
    vertex 180.0048482080508 138.0131759805857 2.199999999999996
    vertex 180.05084834256056 137.66377026969732 2.84284605835566e-16
    vertex 180.05084834256056 137.66377026969732 2.199999999999996
  endloop
endfacet
facet normal -0.9914448613738113 -0.13052619222004638 1.0619914314550596e-16
  outer loop
    vertex 180.05084834256056 137.66377026969732 2.84284605835566e-16
    vertex 180.0048482080508 138.0131759805857 2.199999999999996
    vertex 180.0048482080508 138.0131759805857 2.8921193264806452e-16
  endloop
endfacet
facet normal 0.0 0.0 -1.0
  outer loop
    vertex 167.45510265363936 148.01317598058566 5.764838707204235e-17
    vertex 174.75484814844614 140.61317598058568 3.2085387148327585e-16
    vertex 167.45510265363936 128.01317598058566 5.764838707204235e-17
  endloop
endfacet
facet normal 0.0 0.0 -1.0
  outer loop
    vertex 174.75484814844614 140.61317598058568 3.2085387148327585e-16
    vertex 167.45510265363936 148.01317598058566 5.764838707204235e-17
    vertex 195.45510265363936 148.01317598058566 5.764838707204235e-17
  endloop
endfacet
facet normal 0.0 0.0 -1.0
  outer loop
    vertex 174.75484814844614 140.61317598058568 3.2085387148327585e-16
    vertex 195.45510265363936 148.01317598058566 5.764838707204235e-17
    vertex 187.95484826765545 140.61317598058568 3.2085387148327585e-16
  endloop
endfacet
facet normal 0.0 0.0 -1.0
  outer loop
    vertex 187.95484826765545 140.61317598058568 3.2085387148327585e-16
    vertex 195.45510265363936 148.01317598058566 5.764838707204235e-17
    vertex 187.95484826765545 135.4131759805857 3.2085387148327585e-16
  endloop
endfacet
facet normal 0.0 0.0 -1.0
  outer loop
    vertex 167.45510265363936 128.01317598058566 5.764838707204235e-17
    vertex 174.75484814844614 135.4131759805857 3.2085387148327585e-16
    vertex 195.45510265363936 128.01317598058566 5.764838707204235e-17
  endloop
endfacet
facet normal 0.0 0.0 -1.0
  outer loop
    vertex 174.75484814844614 135.4131759805857 3.2085387148327585e-16
    vertex 167.45510265363936 128.01317598058566 5.764838707204235e-17
    vertex 174.75484814844614 140.61317598058568 3.2085387148327585e-16
  endloop
endfacet
facet normal 0.0 0.0 -1.0
  outer loop
    vertex 195.45510265363936 128.01317598058566 5.764838707204235e-17
    vertex 174.75484814844614 135.4131759805857 3.2085387148327585e-16
    vertex 187.95484826765545 135.4131759805857 3.2085387148327585e-16
  endloop
endfacet
facet normal 0.0 0.0 -1.0
  outer loop
    vertex 195.45510265363936 128.01317598058566 5.764838707204235e-17
    vertex 187.95484826765545 135.4131759805857 3.2085387148327585e-16
    vertex 195.45510265363936 148.01317598058566 5.764838707204235e-17
  endloop
endfacet
facet normal 0.0 0.0 1.0
  outer loop
    vertex 169.45510265363936 130.01317598058566 3.9999999999999996
    vertex 179.33378231007973 135.89185563702603 3.9999999999999996
    vertex 169.45510265363936 146.01317598058566 3.9999999999999996
  endloop
endfacet
facet normal 0.0 0.0 1.0
  outer loop
    vertex 179.33378231007973 135.89185563702603 3.9999999999999996
    vertex 169.45510265363936 130.01317598058566 3.9999999999999996
    vertex 179.95510265363936 135.41509976923237 3.9999999999999996
  endloop
endfacet
facet normal 0.0 0.0 1.0
  outer loop
    vertex 179.95510265363936 135.41509976923237 3.9999999999999996
    vertex 169.45510265363936 130.01317598058566 3.9999999999999996
    vertex 180.67864551833182 135.11539850171846 3.9999999999999996
  endloop
endfacet
facet normal 0.0 0.0 1.0
  outer loop
    vertex 180.67864551833182 135.11539850171846 3.9999999999999996
    vertex 169.45510265363936 130.01317598058566 3.9999999999999996
    vertex 193.45510265363936 130.01317598058566 3.9999999999999996
  endloop
endfacet
facet normal 0.0 0.0 1.0
  outer loop
    vertex 169.45510265363936 146.01317598058566 3.9999999999999996
    vertex 179.33378231007973 135.89185563702603 3.9999999999999996
    vertex 178.85702644228607 136.51317598058566 3.9999999999999996
  endloop
endfacet
facet normal 0.0 0.0 1.0
  outer loop
    vertex 169.45510265363936 146.01317598058566 3.9999999999999996
    vertex 178.85702644228607 136.51317598058566 3.9999999999999996
    vertex 178.55732517477216 137.23671884527812 3.9999999999999996
  endloop
endfacet
facet normal 0.0 0.0 1.0
  outer loop
    vertex 169.45510265363936 146.01317598058566 3.9999999999999996
    vertex 178.55732517477216 137.23671884527812 3.9999999999999996
    vertex 178.45510265363936 138.01317598058566 3.9999999999999996
  endloop
endfacet
facet normal 0.0 0.0 1.0
  outer loop
    vertex 180.67864551833182 135.11539850171846 3.9999999999999996
    vertex 193.45510265363936 130.01317598058566 3.9999999999999996
    vertex 181.45510265363936 135.01317598058566 3.9999999999999996
  endloop
endfacet
facet normal 0.0 0.0 1.0
  outer loop
    vertex 181.45510265363936 135.01317598058566 3.9999999999999996
    vertex 193.45510265363936 130.01317598058566 3.9999999999999996
    vertex 182.23155978894692 135.11539850171846 3.9999999999999996
  endloop
endfacet
facet normal 0.0 0.0 1.0
  outer loop
    vertex 182.23155978894692 135.11539850171846 3.9999999999999996
    vertex 193.45510265363936 130.01317598058566 3.9999999999999996
    vertex 182.95510265363936 135.41509976923237 3.9999999999999996
  endloop
endfacet
facet normal 0.0 0.0 1.0
  outer loop
    vertex 182.95510265363936 135.41509976923237 3.9999999999999996
    vertex 193.45510265363936 130.01317598058566 3.9999999999999996
    vertex 183.57642299719902 135.89185563702603 3.9999999999999996
  endloop
endfacet
facet normal 0.0 0.0 1.0
  outer loop
    vertex 183.57642299719902 135.89185563702603 3.9999999999999996
    vertex 193.45510265363936 130.01317598058566 3.9999999999999996
    vertex 184.05317886499267 136.51317598058566 3.9999999999999996
  endloop
endfacet
facet normal 0.0 0.0 1.0
  outer loop
    vertex 184.05317886499267 136.51317598058566 3.9999999999999996
    vertex 193.45510265363936 130.01317598058566 3.9999999999999996
    vertex 184.35288013250658 137.23671884527812 3.9999999999999996
  endloop
endfacet
facet normal 0.0 0.0 1.0
  outer loop
    vertex 184.35288013250658 137.23671884527812 3.9999999999999996
    vertex 193.45510265363936 130.01317598058566 3.9999999999999996
    vertex 184.45510265363936 138.01317598058566 3.9999999999999996
  endloop
endfacet
facet normal 0.0 0.0 1.0
  outer loop
    vertex 169.45510265363936 146.01317598058566 3.9999999999999996
    vertex 180.67864551833182 140.91095345945286 3.9999999999999996
    vertex 193.45510265363936 146.01317598058566 3.9999999999999996
  endloop
endfacet
facet normal 0.0 0.0 1.0
  outer loop
    vertex 180.67864551833182 140.91095345945286 3.9999999999999996
    vertex 169.45510265363936 146.01317598058566 3.9999999999999996
    vertex 179.95510265363936 140.61125219193897 3.9999999999999996
  endloop
endfacet
facet normal 0.0 0.0 1.0
  outer loop
    vertex 179.95510265363936 140.61125219193897 3.9999999999999996
    vertex 169.45510265363936 146.01317598058566 3.9999999999999996
    vertex 179.33378231007973 140.13449632414532 3.9999999999999996
  endloop
endfacet
facet normal 0.0 0.0 1.0
  outer loop
    vertex 179.33378231007973 140.13449632414532 3.9999999999999996
    vertex 169.45510265363936 146.01317598058566 3.9999999999999996
    vertex 178.85702644228604 139.51317598058566 3.9999999999999996
  endloop
endfacet
facet normal 0.0 0.0 1.0
  outer loop
    vertex 178.85702644228604 139.51317598058566 3.9999999999999996
    vertex 169.45510265363936 146.01317598058566 3.9999999999999996
    vertex 178.55732517477216 138.78963311589322 3.9999999999999996
  endloop
endfacet
facet normal 0.0 0.0 1.0
  outer loop
    vertex 178.55732517477216 138.78963311589322 3.9999999999999996
    vertex 169.45510265363936 146.01317598058566 3.9999999999999996
    vertex 178.45510265363936 138.01317598058566 3.9999999999999996
  endloop
endfacet
facet normal 0.0 0.0 1.0
  outer loop
    vertex 193.45510265363936 146.01317598058566 3.9999999999999996
    vertex 180.67864551833182 140.91095345945286 3.9999999999999996
    vertex 181.45510265363936 141.01317598058566 3.9999999999999996
  endloop
endfacet
facet normal 0.0 0.0 1.0
  outer loop
    vertex 193.45510265363936 146.01317598058566 3.9999999999999996
    vertex 181.45510265363936 141.01317598058566 3.9999999999999996
    vertex 182.23155978894692 140.91095345945286 3.9999999999999996
  endloop
endfacet
facet normal 0.0 0.0 1.0
  outer loop
    vertex 193.45510265363936 146.01317598058566 3.9999999999999996
    vertex 182.23155978894692 140.91095345945286 3.9999999999999996
    vertex 182.95510265363936 140.61125219193897 3.9999999999999996
  endloop
endfacet
facet normal 0.0 0.0 1.0
  outer loop
    vertex 193.45510265363936 146.01317598058566 3.9999999999999996
    vertex 182.95510265363936 140.61125219193897 3.9999999999999996
    vertex 183.57642299719902 140.13449632414532 3.9999999999999996
  endloop
endfacet
facet normal 0.0 0.0 1.0
  outer loop
    vertex 193.45510265363936 146.01317598058566 3.9999999999999996
    vertex 183.57642299719902 140.13449632414532 3.9999999999999996
    vertex 184.05317886499267 139.51317598058566 3.9999999999999996
  endloop
endfacet
facet normal 0.0 0.0 1.0
  outer loop
    vertex 193.45510265363936 146.01317598058566 3.9999999999999996
    vertex 184.05317886499267 139.51317598058566 3.9999999999999996
    vertex 184.35288013250658 138.78963311589322 3.9999999999999996
  endloop
endfacet
facet normal 0.0 0.0 1.0
  outer loop
    vertex 193.45510265363936 146.01317598058566 3.9999999999999996
    vertex 184.35288013250658 138.78963311589322 3.9999999999999996
    vertex 184.45510265363936 138.01317598058566 3.9999999999999996
  endloop
endfacet
facet normal 0.0 0.0 1.0
  outer loop
    vertex 193.45510265363936 146.01317598058566 3.9999999999999996
    vertex 184.45510265363936 138.01317598058566 3.9999999999999996
    vertex 193.45510265363936 130.01317598058566 3.9999999999999996
  endloop
endfacet
facet normal -1.0 0.0 0.0
  outer loop
    vertex 167.45510265363936 148.01317598058566 1.9999999999999998
    vertex 167.45510265363936 128.01317598058566 5.764838707204235e-17
    vertex 167.45510265363936 128.01317598058566 1.9999999999999998
  endloop
endfacet
facet normal -1.0 0.0 0.0
  outer loop
    vertex 167.45510265363936 128.01317598058566 5.764838707204235e-17
    vertex 167.45510265363936 148.01317598058566 1.9999999999999998
    vertex 167.45510265363936 148.01317598058566 5.764838707204235e-17
  endloop
endfacet
facet normal -0.7071067811865481 0.0 0.7071067811865469
  outer loop
    vertex 169.45510265363936 130.01317598058566 3.9999999999999996
    vertex 167.45510265363936 148.01317598058566 1.9999999999999998
    vertex 167.45510265363936 128.01317598058566 1.9999999999999998
  endloop
endfacet
facet normal -0.7071067811865481 0.0 0.7071067811865469
  outer loop
    vertex 167.45510265363936 148.01317598058566 1.9999999999999998
    vertex 169.45510265363936 130.01317598058566 3.9999999999999996
    vertex 169.45510265363936 146.01317598058566 3.9999999999999996
  endloop
endfacet
facet normal 0.0 -1.0 0.0
  outer loop
    vertex 195.45510265363936 128.01317598058566 1.9999999999999998
    vertex 167.45510265363936 128.01317598058566 5.764838707204235e-17
    vertex 195.45510265363936 128.01317598058566 5.764838707204235e-17
  endloop
endfacet
facet normal 0.0 -1.0 0.0
  outer loop
    vertex 167.45510265363936 128.01317598058566 5.764838707204235e-17
    vertex 195.45510265363936 128.01317598058566 1.9999999999999998
    vertex 167.45510265363936 128.01317598058566 1.9999999999999998
  endloop
endfacet
facet normal 1.0 0.0 0.0
  outer loop
    vertex 195.45510265363936 148.01317598058566 5.764838707204235e-17
    vertex 195.45510265363936 128.01317598058566 1.9999999999999998
    vertex 195.45510265363936 128.01317598058566 5.764838707204235e-17
  endloop
endfacet
facet normal 1.0 0.0 0.0
  outer loop
    vertex 195.45510265363936 128.01317598058566 1.9999999999999998
    vertex 195.45510265363936 148.01317598058566 5.764838707204235e-17
    vertex 195.45510265363936 148.01317598058566 1.9999999999999998
  endloop
endfacet
facet normal 0.0 1.0 0.0
  outer loop
    vertex 167.45510265363936 148.01317598058566 1.9999999999999998
    vertex 195.45510265363936 148.01317598058566 5.764838707204235e-17
    vertex 167.45510265363936 148.01317598058566 5.764838707204235e-17
  endloop
endfacet
facet normal 0.0 1.0 0.0
  outer loop
    vertex 195.45510265363936 148.01317598058566 5.764838707204235e-17
    vertex 167.45510265363936 148.01317598058566 1.9999999999999998
    vertex 195.45510265363936 148.01317598058566 1.9999999999999998
  endloop
endfacet
facet normal 0.0 0.0 -1.0
  outer loop
    vertex 195.45510265363936 148.01317598058566 1.9999999999999998
    vertex 167.45510265363936 128.01317598058566 1.9999999999999998
    vertex 167.45510265363936 148.01317598058566 1.9999999999999998
  endloop
endfacet
facet normal 0.0 0.0 -1.0
  outer loop
    vertex 167.45510265363936 128.01317598058566 1.9999999999999998
    vertex 195.45510265363936 148.01317598058566 1.9999999999999998
    vertex 195.45510265363936 128.01317598058566 1.9999999999999998
  endloop
endfacet
facet normal 0.0 0.7071067811865482 0.7071067811865469
  outer loop
    vertex 169.45510265363936 146.01317598058566 3.9999999999999996
    vertex 195.45510265363936 148.01317598058566 1.9999999999999998
    vertex 167.45510265363936 148.01317598058566 1.9999999999999998
  endloop
endfacet
facet normal 0.0 0.7071067811865482 0.7071067811865469
  outer loop
    vertex 195.45510265363936 148.01317598058566 1.9999999999999998
    vertex 169.45510265363936 146.01317598058566 3.9999999999999996
    vertex 193.45510265363936 146.01317598058566 3.9999999999999996
  endloop
endfacet
facet normal 0.0 -0.7071067811865482 0.7071067811865469
  outer loop
    vertex 193.45510265363936 130.01317598058566 3.9999999999999996
    vertex 167.45510265363936 128.01317598058566 1.9999999999999998
    vertex 195.45510265363936 128.01317598058566 1.9999999999999998
  endloop
endfacet
facet normal 0.0 -0.7071067811865482 0.7071067811865469
  outer loop
    vertex 167.45510265363936 128.01317598058566 1.9999999999999998
    vertex 193.45510265363936 130.01317598058566 3.9999999999999996
    vertex 169.45510265363936 130.01317598058566 3.9999999999999996
  endloop
endfacet
facet normal 0.7071067811865481 0.0 0.7071067811865469
  outer loop
    vertex 195.45510265363936 148.01317598058566 1.9999999999999998
    vertex 193.45510265363936 130.01317598058566 3.9999999999999996
    vertex 195.45510265363936 128.01317598058566 1.9999999999999998
  endloop
endfacet
facet normal 0.7071067811865481 0.0 0.7071067811865469
  outer loop
    vertex 193.45510265363936 130.01317598058566 3.9999999999999996
    vertex 195.45510265363936 148.01317598058566 1.9999999999999998
    vertex 193.45510265363936 146.01317598058566 3.9999999999999996
  endloop
endfacet
facet normal 0.0 0.0 1.0
  outer loop
    vertex 178.55732517477216 137.23671884527812 12.0
    vertex 178.55732517477216 138.78963311589322 12.0
    vertex 178.45510265363936 138.01317598058566 12.0
  endloop
endfacet
facet normal 0.0 0.0 1.0
  outer loop
    vertex 178.55732517477216 138.78963311589322 12.0
    vertex 178.55732517477216 137.23671884527812 12.0
    vertex 178.85702644228607 136.51317598058566 12.0
  endloop
endfacet
facet normal 0.0 0.0 1.0
  outer loop
    vertex 178.55732517477216 138.78963311589322 12.0
    vertex 178.85702644228607 136.51317598058566 12.0
    vertex 178.85702644228604 139.51317598058566 12.0
  endloop
endfacet
facet normal 0.0 0.0 1.0
  outer loop
    vertex 178.85702644228604 139.51317598058566 12.0
    vertex 178.85702644228607 136.51317598058566 12.0
    vertex 179.33378231007973 140.13449632414532 12.0
  endloop
endfacet
facet normal 0.0 0.0 1.0
  outer loop
    vertex 179.33378231007973 140.13449632414532 12.0
    vertex 178.85702644228607 136.51317598058566 12.0
    vertex 179.33378231007973 135.89185563702603 12.0
  endloop
endfacet
facet normal 0.0 0.0 1.0
  outer loop
    vertex 179.33378231007973 140.13449632414532 12.0
    vertex 179.33378231007973 135.89185563702603 12.0
    vertex 179.95510265363936 135.41509976923237 12.0
  endloop
endfacet
facet normal 0.0 0.0 1.0
  outer loop
    vertex 179.33378231007973 140.13449632414532 12.0
    vertex 179.95510265363936 135.41509976923237 12.0
    vertex 179.95510265363936 140.61125219193897 12.0
  endloop
endfacet
facet normal 0.0 0.0 1.0
  outer loop
    vertex 179.95510265363936 140.61125219193897 12.0
    vertex 179.95510265363936 135.41509976923237 12.0
    vertex 180.67864551833182 135.11539850171846 12.0
  endloop
endfacet
facet normal 0.0 0.0 1.0
  outer loop
    vertex 179.95510265363936 140.61125219193897 12.0
    vertex 180.67864551833182 135.11539850171846 12.0
    vertex 180.67864551833182 140.91095345945286 12.0
  endloop
endfacet
facet normal 0.0 0.0 1.0
  outer loop
    vertex 180.67864551833182 140.91095345945286 12.0
    vertex 180.67864551833182 135.11539850171846 12.0
    vertex 181.45510265363936 135.01317598058566 12.0
  endloop
endfacet
facet normal 0.0 0.0 1.0
  outer loop
    vertex 180.67864551833182 140.91095345945286 12.0
    vertex 181.45510265363936 135.01317598058566 12.0
    vertex 181.45510265363936 141.01317598058566 12.0
  endloop
endfacet
facet normal 0.0 0.0 1.0
  outer loop
    vertex 181.45510265363936 141.01317598058566 12.0
    vertex 181.45510265363936 135.01317598058566 12.0
    vertex 182.23155978894692 135.11539850171846 12.0
  endloop
endfacet
facet normal 0.0 0.0 1.0
  outer loop
    vertex 181.45510265363936 141.01317598058566 12.0
    vertex 182.23155978894692 135.11539850171846 12.0
    vertex 182.23155978894692 140.91095345945286 12.0
  endloop
endfacet
facet normal 0.0 0.0 1.0
  outer loop
    vertex 182.23155978894692 140.91095345945286 12.0
    vertex 182.23155978894692 135.11539850171846 12.0
    vertex 182.95510265363936 135.41509976923237 12.0
  endloop
endfacet
facet normal 0.0 0.0 1.0
  outer loop
    vertex 182.23155978894692 140.91095345945286 12.0
    vertex 182.95510265363936 135.41509976923237 12.0
    vertex 182.95510265363936 140.61125219193897 12.0
  endloop
endfacet
facet normal 0.0 0.0 1.0
  outer loop
    vertex 182.95510265363936 140.61125219193897 12.0
    vertex 182.95510265363936 135.41509976923237 12.0
    vertex 183.57642299719902 135.89185563702603 12.0
  endloop
endfacet
facet normal 0.0 0.0 1.0
  outer loop
    vertex 182.95510265363936 140.61125219193897 12.0
    vertex 183.57642299719902 135.89185563702603 12.0
    vertex 183.57642299719902 140.13449632414532 12.0
  endloop
endfacet
facet normal 0.0 0.0 1.0
  outer loop
    vertex 183.57642299719902 140.13449632414532 12.0
    vertex 183.57642299719902 135.89185563702603 12.0
    vertex 184.05317886499267 136.51317598058566 12.0
  endloop
endfacet
facet normal 0.0 0.0 1.0
  outer loop
    vertex 183.57642299719902 140.13449632414532 12.0
    vertex 184.05317886499267 136.51317598058566 12.0
    vertex 184.05317886499267 139.51317598058566 12.0
  endloop
endfacet
facet normal 0.0 0.0 1.0
  outer loop
    vertex 184.05317886499267 139.51317598058566 12.0
    vertex 184.05317886499267 136.51317598058566 12.0
    vertex 184.35288013250658 137.23671884527812 12.0
  endloop
endfacet
facet normal 0.0 0.0 1.0
  outer loop
    vertex 184.05317886499267 139.51317598058566 12.0
    vertex 184.35288013250658 137.23671884527812 12.0
    vertex 184.35288013250658 138.78963311589322 12.0
  endloop
endfacet
facet normal 0.0 0.0 1.0
  outer loop
    vertex 184.35288013250658 138.78963311589322 12.0
    vertex 184.35288013250658 137.23671884527812 12.0
    vertex 184.45510265363936 138.01317598058566 12.0
  endloop
endfacet
facet normal 0.13052619222004555 0.9914448613738113 0.0
  outer loop
    vertex 181.45510265363936 141.01317598058566 12.0
    vertex 182.23155978894692 140.91095345945286 3.9999999999999996
    vertex 181.45510265363936 141.01317598058566 3.9999999999999996
  endloop
endfacet
facet normal 0.13052619222004555 0.9914448613738113 0.0
  outer loop
    vertex 182.23155978894692 140.91095345945286 3.9999999999999996
    vertex 181.45510265363936 141.01317598058566 12.0
    vertex 182.23155978894692 140.91095345945286 12.0
  endloop
endfacet
facet normal -0.13052619222004555 0.9914448613738113 0.0
  outer loop
    vertex 180.67864551833182 140.91095345945286 12.0
    vertex 181.45510265363936 141.01317598058566 3.9999999999999996
    vertex 180.67864551833182 140.91095345945286 3.9999999999999996
  endloop
endfacet
facet normal -0.13052619222004555 0.9914448613738113 0.0
  outer loop
    vertex 181.45510265363936 141.01317598058566 3.9999999999999996
    vertex 180.67864551833182 140.91095345945286 12.0
    vertex 181.45510265363936 141.01317598058566 12.0
  endloop
endfacet
facet normal -0.3826834323651054 0.9238795325112803 0.0
  outer loop
    vertex 179.95510265363936 140.61125219193897 12.0
    vertex 180.67864551833182 140.91095345945286 3.9999999999999996
    vertex 179.95510265363936 140.61125219193897 3.9999999999999996
  endloop
endfacet
facet normal -0.3826834323651054 0.9238795325112803 0.0
  outer loop
    vertex 180.67864551833182 140.91095345945286 3.9999999999999996
    vertex 179.95510265363936 140.61125219193897 12.0
    vertex 180.67864551833182 140.91095345945286 12.0
  endloop
endfacet
facet normal -0.6087614290086991 0.7933533402912517 0.0
  outer loop
    vertex 179.33378231007973 140.13449632414532 12.0
    vertex 179.95510265363936 140.61125219193897 3.9999999999999996
    vertex 179.33378231007973 140.13449632414532 3.9999999999999996
  endloop
endfacet
facet normal -0.6087614290086991 0.7933533402912517 0.0
  outer loop
    vertex 179.95510265363936 140.61125219193897 3.9999999999999996
    vertex 179.33378231007973 140.13449632414532 12.0
    vertex 179.95510265363936 140.61125219193897 12.0
  endloop
endfacet
facet normal -0.7933533402912378 0.6087614290087172 0.0
  outer loop
    vertex 179.33378231007973 140.13449632414532 12.0
    vertex 178.85702644228604 139.51317598058566 3.9999999999999996
    vertex 178.85702644228604 139.51317598058566 12.0
  endloop
endfacet
facet normal -0.7933533402912378 0.6087614290087172 0.0
  outer loop
    vertex 178.85702644228604 139.51317598058566 3.9999999999999996
    vertex 179.33378231007973 140.13449632414532 12.0
    vertex 179.33378231007973 140.13449632414532 3.9999999999999996
  endloop
endfacet
facet normal -0.9238795325112906 0.38268343236508084 0.0
  outer loop
    vertex 178.85702644228604 139.51317598058566 12.0
    vertex 178.55732517477216 138.78963311589322 3.9999999999999996
    vertex 178.55732517477216 138.78963311589322 12.0
  endloop
endfacet
facet normal -0.9238795325112906 0.38268343236508084 0.0
  outer loop
    vertex 178.55732517477216 138.78963311589322 3.9999999999999996
    vertex 178.85702644228604 139.51317598058566 12.0
    vertex 178.85702644228604 139.51317598058566 3.9999999999999996
  endloop
endfacet
facet normal -0.9914448613738113 0.13052619222004555 0.0
  outer loop
    vertex 178.55732517477216 138.78963311589322 12.0
    vertex 178.45510265363936 138.01317598058566 3.9999999999999996
    vertex 178.45510265363936 138.01317598058566 12.0
  endloop
endfacet
facet normal -0.9914448613738113 0.13052619222004555 0.0
  outer loop
    vertex 178.45510265363936 138.01317598058566 3.9999999999999996
    vertex 178.55732517477216 138.78963311589322 12.0
    vertex 178.55732517477216 138.78963311589322 3.9999999999999996
  endloop
endfacet
facet normal -0.9914448613738113 -0.13052619222004555 -0.0
  outer loop
    vertex 178.45510265363936 138.01317598058566 12.0
    vertex 178.55732517477216 137.23671884527812 3.9999999999999996
    vertex 178.55732517477216 137.23671884527812 12.0
  endloop
endfacet
facet normal -0.9914448613738113 -0.13052619222004555 -0.0
  outer loop
    vertex 178.55732517477216 137.23671884527812 3.9999999999999996
    vertex 178.45510265363936 138.01317598058566 12.0
    vertex 178.45510265363936 138.01317598058566 3.9999999999999996
  endloop
endfacet
facet normal -0.9238795325112803 -0.3826834323651054 -0.0
  outer loop
    vertex 178.55732517477216 137.23671884527812 12.0
    vertex 178.85702644228607 136.51317598058566 3.9999999999999996
    vertex 178.85702644228607 136.51317598058566 12.0
  endloop
endfacet
facet normal -0.9238795325112803 -0.3826834323651054 -0.0
  outer loop
    vertex 178.85702644228607 136.51317598058566 3.9999999999999996
    vertex 178.55732517477216 137.23671884527812 12.0
    vertex 178.55732517477216 137.23671884527812 3.9999999999999996
  endloop
endfacet
facet normal -0.7933533402912517 -0.6087614290086991 -0.0
  outer loop
    vertex 178.85702644228607 136.51317598058566 12.0
    vertex 179.33378231007973 135.89185563702603 3.9999999999999996
    vertex 179.33378231007973 135.89185563702603 12.0
  endloop
endfacet
facet normal -0.7933533402912517 -0.6087614290086991 -0.0
  outer loop
    vertex 179.33378231007973 135.89185563702603 3.9999999999999996
    vertex 178.85702644228607 136.51317598058566 12.0
    vertex 178.85702644228607 136.51317598058566 3.9999999999999996
  endloop
endfacet
facet normal -0.6087614290086991 -0.7933533402912517 -0.0
  outer loop
    vertex 179.95510265363936 135.41509976923237 12.0
    vertex 179.33378231007973 135.89185563702603 3.9999999999999996
    vertex 179.95510265363936 135.41509976923237 3.9999999999999996
  endloop
endfacet
facet normal -0.6087614290086991 -0.7933533402912517 -0.0
  outer loop
    vertex 179.33378231007973 135.89185563702603 3.9999999999999996
    vertex 179.95510265363936 135.41509976923237 12.0
    vertex 179.33378231007973 135.89185563702603 12.0
  endloop
endfacet
facet normal -0.3826834323651054 -0.9238795325112803 -0.0
  outer loop
    vertex 180.67864551833182 135.11539850171846 12.0
    vertex 179.95510265363936 135.41509976923237 3.9999999999999996
    vertex 180.67864551833182 135.11539850171846 3.9999999999999996
  endloop
endfacet
facet normal -0.3826834323651054 -0.9238795325112803 -0.0
  outer loop
    vertex 179.95510265363936 135.41509976923237 3.9999999999999996
    vertex 180.67864551833182 135.11539850171846 12.0
    vertex 179.95510265363936 135.41509976923237 12.0
  endloop
endfacet
facet normal -0.13052619222004555 -0.9914448613738113 -0.0
  outer loop
    vertex 181.45510265363936 135.01317598058566 12.0
    vertex 180.67864551833182 135.11539850171846 3.9999999999999996
    vertex 181.45510265363936 135.01317598058566 3.9999999999999996
  endloop
endfacet
facet normal -0.13052619222004555 -0.9914448613738113 -0.0
  outer loop
    vertex 180.67864551833182 135.11539850171846 3.9999999999999996
    vertex 181.45510265363936 135.01317598058566 12.0
    vertex 180.67864551833182 135.11539850171846 12.0
  endloop
endfacet
facet normal 0.13052619222004555 -0.9914448613738113 0.0
  outer loop
    vertex 182.23155978894692 135.11539850171846 12.0
    vertex 181.45510265363936 135.01317598058566 3.9999999999999996
    vertex 182.23155978894692 135.11539850171846 3.9999999999999996
  endloop
endfacet
facet normal 0.13052619222004555 -0.9914448613738113 0.0
  outer loop
    vertex 181.45510265363936 135.01317598058566 3.9999999999999996
    vertex 182.23155978894692 135.11539850171846 12.0
    vertex 181.45510265363936 135.01317598058566 12.0
  endloop
endfacet
facet normal 0.3826834323651054 -0.9238795325112803 0.0
  outer loop
    vertex 182.95510265363936 135.41509976923237 12.0
    vertex 182.23155978894692 135.11539850171846 3.9999999999999996
    vertex 182.95510265363936 135.41509976923237 3.9999999999999996
  endloop
endfacet
facet normal 0.3826834323651054 -0.9238795325112803 0.0
  outer loop
    vertex 182.23155978894692 135.11539850171846 3.9999999999999996
    vertex 182.95510265363936 135.41509976923237 12.0
    vertex 182.23155978894692 135.11539850171846 12.0
  endloop
endfacet
facet normal 0.6087614290086991 -0.7933533402912517 0.0
  outer loop
    vertex 183.57642299719902 135.89185563702603 12.0
    vertex 182.95510265363936 135.41509976923237 3.9999999999999996
    vertex 183.57642299719902 135.89185563702603 3.9999999999999996
  endloop
endfacet
facet normal 0.6087614290086991 -0.7933533402912517 0.0
  outer loop
    vertex 182.95510265363936 135.41509976923237 3.9999999999999996
    vertex 183.57642299719902 135.89185563702603 12.0
    vertex 182.95510265363936 135.41509976923237 12.0
  endloop
endfacet
facet normal 0.7933533402912517 -0.6087614290086991 0.0
  outer loop
    vertex 184.05317886499267 136.51317598058566 3.9999999999999996
    vertex 183.57642299719902 135.89185563702603 12.0
    vertex 183.57642299719902 135.89185563702603 3.9999999999999996
  endloop
endfacet
facet normal 0.7933533402912517 -0.6087614290086991 0.0
  outer loop
    vertex 183.57642299719902 135.89185563702603 12.0
    vertex 184.05317886499267 136.51317598058566 3.9999999999999996
    vertex 184.05317886499267 136.51317598058566 12.0
  endloop
endfacet
facet normal 0.9238795325112803 -0.3826834323651054 0.0
  outer loop
    vertex 184.35288013250658 137.23671884527812 3.9999999999999996
    vertex 184.05317886499267 136.51317598058566 12.0
    vertex 184.05317886499267 136.51317598058566 3.9999999999999996
  endloop
endfacet
facet normal 0.9238795325112803 -0.3826834323651054 0.0
  outer loop
    vertex 184.05317886499267 136.51317598058566 12.0
    vertex 184.35288013250658 137.23671884527812 3.9999999999999996
    vertex 184.35288013250658 137.23671884527812 12.0
  endloop
endfacet
facet normal 0.9914448613738113 -0.13052619222004555 0.0
  outer loop
    vertex 184.45510265363936 138.01317598058566 3.9999999999999996
    vertex 184.35288013250658 137.23671884527812 12.0
    vertex 184.35288013250658 137.23671884527812 3.9999999999999996
  endloop
endfacet
facet normal 0.9914448613738113 -0.13052619222004555 0.0
  outer loop
    vertex 184.35288013250658 137.23671884527812 12.0
    vertex 184.45510265363936 138.01317598058566 3.9999999999999996
    vertex 184.45510265363936 138.01317598058566 12.0
  endloop
endfacet
facet normal 0.9914448613738113 0.13052619222004555 0.0
  outer loop
    vertex 184.35288013250658 138.78963311589322 3.9999999999999996
    vertex 184.45510265363936 138.01317598058566 12.0
    vertex 184.45510265363936 138.01317598058566 3.9999999999999996
  endloop
endfacet
facet normal 0.9914448613738113 0.13052619222004555 0.0
  outer loop
    vertex 184.45510265363936 138.01317598058566 12.0
    vertex 184.35288013250658 138.78963311589322 3.9999999999999996
    vertex 184.35288013250658 138.78963311589322 12.0
  endloop
endfacet
facet normal 0.9238795325112803 0.3826834323651054 0.0
  outer loop
    vertex 184.05317886499267 139.51317598058566 3.9999999999999996
    vertex 184.35288013250658 138.78963311589322 12.0
    vertex 184.35288013250658 138.78963311589322 3.9999999999999996
  endloop
endfacet
facet normal 0.9238795325112803 0.3826834323651054 0.0
  outer loop
    vertex 184.35288013250658 138.78963311589322 12.0
    vertex 184.05317886499267 139.51317598058566 3.9999999999999996
    vertex 184.05317886499267 139.51317598058566 12.0
  endloop
endfacet
facet normal 0.7933533402912517 0.6087614290086991 0.0
  outer loop
    vertex 183.57642299719902 140.13449632414532 3.9999999999999996
    vertex 184.05317886499267 139.51317598058566 12.0
    vertex 184.05317886499267 139.51317598058566 3.9999999999999996
  endloop
endfacet
facet normal 0.7933533402912517 0.6087614290086991 0.0
  outer loop
    vertex 184.05317886499267 139.51317598058566 12.0
    vertex 183.57642299719902 140.13449632414532 3.9999999999999996
    vertex 183.57642299719902 140.13449632414532 12.0
  endloop
endfacet
facet normal 0.6087614290086991 0.7933533402912517 0.0
  outer loop
    vertex 182.95510265363936 140.61125219193897 12.0
    vertex 183.57642299719902 140.13449632414532 3.9999999999999996
    vertex 182.95510265363936 140.61125219193897 3.9999999999999996
  endloop
endfacet
facet normal 0.6087614290086991 0.7933533402912517 0.0
  outer loop
    vertex 183.57642299719902 140.13449632414532 3.9999999999999996
    vertex 182.95510265363936 140.61125219193897 12.0
    vertex 183.57642299719902 140.13449632414532 12.0
  endloop
endfacet
facet normal 0.3826834323651054 0.9238795325112803 0.0
  outer loop
    vertex 182.23155978894692 140.91095345945286 12.0
    vertex 182.95510265363936 140.61125219193897 3.9999999999999996
    vertex 182.23155978894692 140.91095345945286 3.9999999999999996
  endloop
endfacet
facet normal 0.3826834323651054 0.9238795325112803 0.0
  outer loop
    vertex 182.95510265363936 140.61125219193897 3.9999999999999996
    vertex 182.23155978894692 140.91095345945286 12.0
    vertex 182.95510265363936 140.61125219193897 12.0
  endloop
endfacet
endsolid Benchy Barge
