solid Benchy Barge
facet normal 1.818117367300006e-15 -0.7071067811864972 0.7071067811865979
  outer loop
    vertex 180.59261526679614 161.22058306941182 25.999999999999574
    vertex 166.5926152667961 163.22058306941182 27.99999999999927
    vertex 160.59261526679612 161.22058306941173 25.999999999999602
  endloop
endfacet
facet normal 1.818117367300006e-15 -0.7071067811864972 0.7071067811865979
  outer loop
    vertex 166.5926152667961 163.22058306941182 27.99999999999927
    vertex 180.59261526679614 161.22058306941182 25.999999999999574
    vertex 174.5926152667961 163.22058306941182 27.999999999999417
  endloop
endfacet
facet normal -0.7933533402912333 0.6087614290087231 0.0
  outer loop
    vertex 175.23399274833852 167.6955830694118 6.0
    vertex 174.74929094941496 167.06390738679283 0.0
    vertex 174.74929094941496 167.06390738679283 6.0
  endloop
endfacet
facet normal -0.7933533402912333 0.6087614290087231 0.0
  outer loop
    vertex 174.74929094941496 167.06390738679283 0.0
    vertex 175.23399274833852 167.6955830694118 6.0
    vertex 175.23399274833852 167.6955830694118 0.0
  endloop
endfacet
facet normal -0.13052619222005007 0.9914448613738107 0.0
  outer loop
    vertex 172.59261526679597 166.17058306941183 6.0
    vertex 173.38201335435866 166.27450929923015 0.0
    vertex 172.59261526679597 166.17058306941183 0.0
  endloop
endfacet
facet normal -0.13052619222005007 0.9914448613738107 0.0
  outer loop
    vertex 173.38201335435866 166.27450929923015 0.0
    vertex 172.59261526679597 166.17058306941183 6.0
    vertex 173.38201335435866 166.27450929923015 6.0
  endloop
endfacet
facet normal -0.13052619222005007 -0.9914448613738107 -0.0
  outer loop
    vertex 173.38201335435866 172.1666568395935 6.0
    vertex 172.59261526679597 172.27058306941183 0.0
    vertex 173.38201335435866 172.1666568395935 0.0
  endloop
endfacet
facet normal -0.13052619222005007 -0.9914448613738107 -0.0
  outer loop
    vertex 172.59261526679597 172.27058306941183 0.0
    vertex 173.38201335435866 172.1666568395935 6.0
    vertex 172.59261526679597 172.27058306941183 6.0
  endloop
endfacet
facet normal -0.38268343236507485 -0.923879532511293 -0.0
  outer loop
    vertex 174.11761526679598 171.86196055095436 6.0
    vertex 173.38201335435866 172.1666568395935 0.0
    vertex 174.11761526679598 171.86196055095436 0.0
  endloop
endfacet
facet normal -0.38268343236507485 -0.923879532511293 -0.0
  outer loop
    vertex 173.38201335435866 172.1666568395935 0.0
    vertex 174.11761526679598 171.86196055095436 6.0
    vertex 173.38201335435866 172.1666568395935 6.0
  endloop
endfacet
facet normal 0.7933533402912333 -0.6087614290087231 0.0
  outer loop
    vertex 170.435939584177 171.3772587520308 0.0
    vertex 169.95123778525343 170.74558306941185 6.0
    vertex 169.95123778525343 170.74558306941185 0.0
  endloop
endfacet
facet normal 0.7933533402912333 -0.6087614290087231 0.0
  outer loop
    vertex 169.95123778525343 170.74558306941185 6.0
    vertex 170.435939584177 171.3772587520308 0.0
    vertex 170.435939584177 171.3772587520308 6.0
  endloop
endfacet
facet normal -0.7933533402912439 -0.6087614290087094 -0.0
  outer loop
    vertex 174.74929094941496 171.3772587520308 6.0
    vertex 175.23399274833852 170.74558306941182 0.0
    vertex 175.23399274833852 170.74558306941182 6.0
  endloop
endfacet
facet normal -0.7933533402912439 -0.6087614290087094 -0.0
  outer loop
    vertex 175.23399274833852 170.74558306941182 0.0
    vertex 174.74929094941496 171.3772587520308 6.0
    vertex 174.74929094941496 171.3772587520308 0.0
  endloop
endfacet
facet normal 0.923879532511289 0.38268343236508495 0.0
  outer loop
    vertex 169.6465414966143 168.43118498184913 0.0
    vertex 169.95123778525343 167.69558306941184 6.0
    vertex 169.95123778525343 167.69558306941184 0.0
  endloop
endfacet
facet normal 0.923879532511289 0.38268343236508495 0.0
  outer loop
    vertex 169.95123778525343 167.69558306941184 6.0
    vertex 169.6465414966143 168.43118498184913 0.0
    vertex 169.6465414966143 168.43118498184913 6.0
  endloop
endfacet
facet normal -1.0 0.0 0.0
  outer loop
    vertex 158.59261526679597 159.22058306941184 8.0
    vertex 158.59261526679597 179.22058306941182 0.0
    vertex 158.59261526679597 159.22058306941182 0.0
  endloop
endfacet
facet normal -1.0 0.0 0.0
  outer loop
    vertex 158.59261526679597 179.22058306941182 0.0
    vertex 158.59261526679597 159.22058306941184 8.0
    vertex 158.59261526679597 179.22058306941182 8.0
  endloop
endfacet
facet normal 0.6087614290087094 -0.7933533402912439 0.0
  outer loop
    vertex 171.06761526679597 171.86196055095436 6.0
    vertex 170.435939584177 171.3772587520308 0.0
    vertex 171.06761526679597 171.86196055095436 0.0
  endloop
endfacet
facet normal 0.6087614290087094 -0.7933533402912439 0.0
  outer loop
    vertex 170.435939584177 171.3772587520308 0.0
    vertex 171.06761526679597 171.86196055095436 6.0
    vertex 170.435939584177 171.3772587520308 6.0
  endloop
endfacet
facet normal -0.38268343236508495 0.923879532511289 0.0
  outer loop
    vertex 173.38201335435866 166.27450929923015 6.0
    vertex 174.11761526679595 166.57920558786927 0.0
    vertex 173.38201335435866 166.27450929923015 0.0
  endloop
endfacet
facet normal -0.38268343236508495 0.923879532511289 0.0
  outer loop
    vertex 174.11761526679595 166.57920558786927 0.0
    vertex 173.38201335435866 166.27450929923015 6.0
    vertex 174.11761526679595 166.57920558786927 6.0
  endloop
endfacet
facet normal 0.13052619222005007 0.9914448613738107 0.0
  outer loop
    vertex 171.8032171792333 166.27450929923015 6.0
    vertex 172.59261526679597 166.17058306941183 0.0
    vertex 171.8032171792333 166.27450929923015 0.0
  endloop
endfacet
facet normal 0.13052619222005007 0.9914448613738107 0.0
  outer loop
    vertex 172.59261526679597 166.17058306941183 0.0
    vertex 171.8032171792333 166.27450929923015 6.0
    vertex 172.59261526679597 166.17058306941183 6.0
  endloop
endfacet
facet normal -0.6087614290087094 0.7933533402912439 0.0
  outer loop
    vertex 174.11761526679595 166.57920558786927 6.0
    vertex 174.74929094941496 167.06390738679283 0.0
    vertex 174.11761526679595 166.57920558786927 0.0
  endloop
endfacet
facet normal -0.6087614290087094 0.7933533402912439 0.0
  outer loop
    vertex 174.74929094941496 167.06390738679283 0.0
    vertex 174.11761526679595 166.57920558786927 6.0
    vertex 174.74929094941496 167.06390738679283 6.0
  endloop
endfacet
facet normal 0.38268343236508495 -0.923879532511289 0.0
  outer loop
    vertex 171.8032171792333 172.1666568395935 6.0
    vertex 171.06761526679597 171.86196055095436 0.0
    vertex 171.8032171792333 172.1666568395935 0.0
  endloop
endfacet
facet normal 0.38268343236508495 -0.923879532511289 0.0
  outer loop
    vertex 171.06761526679597 171.86196055095436 0.0
    vertex 171.8032171792333 172.1666568395935 6.0
    vertex 171.06761526679597 171.86196055095436 6.0
  endloop
endfacet
facet normal -0.923879532511293 0.38268343236507485 0.0
  outer loop
    vertex 175.53868903697764 168.43118498184913 6.0
    vertex 175.23399274833852 167.6955830694118 0.0
    vertex 175.23399274833852 167.6955830694118 6.0
  endloop
endfacet
facet normal -0.923879532511293 0.38268343236507485 0.0
  outer loop
    vertex 175.23399274833852 167.6955830694118 0.0
    vertex 175.53868903697764 168.43118498184913 6.0
    vertex 175.53868903697764 168.43118498184913 0.0
  endloop
endfacet
facet normal 0.13052619222005007 -0.9914448613738107 0.0
  outer loop
    vertex 172.59261526679597 172.27058306941183 6.0
    vertex 171.8032171792333 172.1666568395935 0.0
    vertex 172.59261526679597 172.27058306941183 0.0
  endloop
endfacet
facet normal 0.13052619222005007 -0.9914448613738107 0.0
  outer loop
    vertex 171.8032171792333 172.1666568395935 0.0
    vertex 172.59261526679597 172.27058306941183 6.0
    vertex 171.8032171792333 172.1666568395935 6.0
  endloop
endfacet
facet normal 0.6087614290087231 0.7933533402912333 0.0
  outer loop
    vertex 170.435939584177 167.06390738679283 6.0
    vertex 171.06761526679597 166.57920558786927 0.0
    vertex 170.435939584177 167.06390738679283 0.0
  endloop
endfacet
facet normal 0.6087614290087231 0.7933533402912333 0.0
  outer loop
    vertex 171.06761526679597 166.57920558786927 0.0
    vertex 170.435939584177 167.06390738679283 6.0
    vertex 171.06761526679597 166.57920558786927 6.0
  endloop
endfacet
facet normal -0.9914448613738107 -0.13052619222005007 -0.0
  outer loop
    vertex 175.53868903697764 170.0099811569745 6.0
    vertex 175.64261526679599 169.22058306941182 0.0
    vertex 175.64261526679599 169.22058306941182 6.0
  endloop
endfacet
facet normal -0.9914448613738107 -0.13052619222005007 -0.0
  outer loop
    vertex 175.64261526679599 169.22058306941182 0.0
    vertex 175.53868903697764 170.0099811569745 6.0
    vertex 175.53868903697764 170.0099811569745 0.0
  endloop
endfacet
facet normal 0.38268343236507485 0.923879532511293 0.0
  outer loop
    vertex 171.06761526679597 166.57920558786927 6.0
    vertex 171.8032171792333 166.27450929923015 0.0
    vertex 171.06761526679597 166.57920558786927 0.0
  endloop
endfacet
facet normal 0.38268343236507485 0.923879532511293 0.0
  outer loop
    vertex 171.8032171792333 166.27450929923015 0.0
    vertex 171.06761526679597 166.57920558786927 6.0
    vertex 171.8032171792333 166.27450929923015 6.0
  endloop
endfacet
facet normal 0.0 1.0 0.0
  outer loop
    vertex 158.59261526679597 179.22058306941182 8.0
    vertex 194.59261526679614 179.22058306941182 0.0
    vertex 158.59261526679597 179.22058306941182 0.0
  endloop
endfacet
facet normal 0.0 1.0 0.0
  outer loop
    vertex 194.59261526679614 179.22058306941182 0.0
    vertex 158.59261526679597 179.22058306941182 8.0
    vertex 194.59261526679614 179.22058306941182 8.0
  endloop
endfacet
facet normal 1.0 0.0 0.0
  outer loop
    vertex 194.59261526679614 179.22058306941182 0.0
    vertex 194.59261526679614 159.22058306941182 8.0
    vertex 194.59261526679614 159.22058306941182 0.0
  endloop
endfacet
facet normal 1.0 0.0 0.0
  outer loop
    vertex 194.59261526679614 159.22058306941182 8.0
    vertex 194.59261526679614 179.22058306941182 0.0
    vertex 194.59261526679614 166.22058306941182 8.0
  endloop
endfacet
facet normal 1.0 0.0 0.0
  outer loop
    vertex 194.59261526679614 166.22058306941182 8.0
    vertex 194.59261526679614 179.22058306941182 0.0
    vertex 194.59261526679614 172.22058306941187 7.999999999999303
  endloop
endfacet
facet normal 1.0 0.0 0.0
  outer loop
    vertex 194.59261526679614 172.22058306941187 7.999999999999303
    vertex 194.59261526679614 179.22058306941182 0.0
    vertex 194.59261526679614 179.22058306941182 8.0
  endloop
endfacet
facet normal 0.923879532511293 -0.38268343236507485 0.0
  outer loop
    vertex 169.95123778525343 170.74558306941185 0.0
    vertex 169.6465414966143 170.0099811569745 6.0
    vertex 169.6465414966143 170.0099811569745 0.0
  endloop
endfacet
facet normal 0.923879532511293 -0.38268343236507485 0.0
  outer loop
    vertex 169.6465414966143 170.0099811569745 6.0
    vertex 169.95123778525343 170.74558306941185 0.0
    vertex 169.95123778525343 170.74558306941185 6.0
  endloop
endfacet
facet normal 0.0 0.0 -1.0
  outer loop
    vertex 158.59261526679597 179.22058306941182 0.0
    vertex 170.435939584177 171.3772587520308 0.0
    vertex 158.59261526679597 159.22058306941182 0.0
  endloop
endfacet
facet normal 0.0 0.0 -1.0
  outer loop
    vertex 170.435939584177 171.3772587520308 0.0
    vertex 158.59261526679597 179.22058306941182 0.0
    vertex 171.06761526679597 171.86196055095436 0.0
  endloop
endfacet
facet normal 0.0 0.0 -1.0
  outer loop
    vertex 171.06761526679597 171.86196055095436 0.0
    vertex 158.59261526679597 179.22058306941182 0.0
    vertex 171.8032171792333 172.1666568395935 0.0
  endloop
endfacet
facet normal 0.0 0.0 -1.0
  outer loop
    vertex 171.8032171792333 172.1666568395935 0.0
    vertex 158.59261526679597 179.22058306941182 0.0
    vertex 194.59261526679614 179.22058306941182 0.0
  endloop
endfacet
facet normal 0.0 0.0 -1.0
  outer loop
    vertex 158.59261526679597 159.22058306941182 0.0
    vertex 170.435939584177 171.3772587520308 0.0
    vertex 169.95123778525343 170.74558306941185 0.0
  endloop
endfacet
facet normal 0.0 0.0 -1.0
  outer loop
    vertex 158.59261526679597 159.22058306941182 0.0
    vertex 169.95123778525343 170.74558306941185 0.0
    vertex 169.6465414966143 170.0099811569745 0.0
  endloop
endfacet
facet normal 0.0 0.0 -1.0
  outer loop
    vertex 158.59261526679597 159.22058306941182 0.0
    vertex 169.6465414966143 170.0099811569745 0.0
    vertex 169.54261526679596 169.22058306941182 0.0
  endloop
endfacet
facet normal 0.0 0.0 -1.0
  outer loop
    vertex 171.8032171792333 172.1666568395935 0.0
    vertex 194.59261526679614 179.22058306941182 0.0
    vertex 172.59261526679597 172.27058306941183 0.0
  endloop
endfacet
facet normal 0.0 0.0 -1.0
  outer loop
    vertex 172.59261526679597 172.27058306941183 0.0
    vertex 194.59261526679614 179.22058306941182 0.0
    vertex 173.38201335435866 172.1666568395935 0.0
  endloop
endfacet
facet normal 0.0 0.0 -1.0
  outer loop
    vertex 173.38201335435866 172.1666568395935 0.0
    vertex 194.59261526679614 179.22058306941182 0.0
    vertex 174.11761526679598 171.86196055095436 0.0
  endloop
endfacet
facet normal 0.0 0.0 -1.0
  outer loop
    vertex 174.11761526679598 171.86196055095436 0.0
    vertex 194.59261526679614 179.22058306941182 0.0
    vertex 174.74929094941496 171.3772587520308 0.0
  endloop
endfacet
facet normal 0.0 0.0 -1.0
  outer loop
    vertex 174.74929094941496 171.3772587520308 0.0
    vertex 194.59261526679614 179.22058306941182 0.0
    vertex 175.23399274833852 170.74558306941182 0.0
  endloop
endfacet
facet normal 0.0 0.0 -1.0
  outer loop
    vertex 175.23399274833852 170.74558306941182 0.0
    vertex 194.59261526679614 179.22058306941182 0.0
    vertex 175.53868903697764 170.0099811569745 0.0
  endloop
endfacet
facet normal 0.0 0.0 -1.0
  outer loop
    vertex 175.53868903697764 170.0099811569745 0.0
    vertex 194.59261526679614 179.22058306941182 0.0
    vertex 175.64261526679599 169.22058306941182 0.0
  endloop
endfacet
facet normal 0.0 0.0 -1.0
  outer loop
    vertex 158.59261526679597 159.22058306941182 0.0
    vertex 171.8032171792333 166.27450929923015 0.0
    vertex 194.59261526679614 159.22058306941182 0.0
  endloop
endfacet
facet normal 0.0 0.0 -1.0
  outer loop
    vertex 171.8032171792333 166.27450929923015 0.0
    vertex 158.59261526679597 159.22058306941182 0.0
    vertex 171.06761526679597 166.57920558786927 0.0
  endloop
endfacet
facet normal 0.0 0.0 -1.0
  outer loop
    vertex 171.06761526679597 166.57920558786927 0.0
    vertex 158.59261526679597 159.22058306941182 0.0
    vertex 170.435939584177 167.06390738679283 0.0
  endloop
endfacet
facet normal 0.0 0.0 -1.0
  outer loop
    vertex 170.435939584177 167.06390738679283 0.0
    vertex 158.59261526679597 159.22058306941182 0.0
    vertex 169.95123778525343 167.69558306941184 0.0
  endloop
endfacet
facet normal 0.0 0.0 -1.0
  outer loop
    vertex 169.95123778525343 167.69558306941184 0.0
    vertex 158.59261526679597 159.22058306941182 0.0
    vertex 169.6465414966143 168.43118498184913 0.0
  endloop
endfacet
facet normal 0.0 0.0 -1.0
  outer loop
    vertex 169.6465414966143 168.43118498184913 0.0
    vertex 158.59261526679597 159.22058306941182 0.0
    vertex 169.54261526679596 169.22058306941182 0.0
  endloop
endfacet
facet normal 0.0 0.0 -1.0
  outer loop
    vertex 194.59261526679614 159.22058306941182 0.0
    vertex 171.8032171792333 166.27450929923015 0.0
    vertex 172.59261526679597 166.17058306941183 0.0
  endloop
endfacet
facet normal 0.0 0.0 -1.0
  outer loop
    vertex 194.59261526679614 159.22058306941182 0.0
    vertex 172.59261526679597 166.17058306941183 0.0
    vertex 173.38201335435866 166.27450929923015 0.0
  endloop
endfacet
facet normal 0.0 0.0 -1.0
  outer loop
    vertex 194.59261526679614 159.22058306941182 0.0
    vertex 173.38201335435866 166.27450929923015 0.0
    vertex 174.11761526679595 166.57920558786927 0.0
  endloop
endfacet
facet normal 0.0 0.0 -1.0
  outer loop
    vertex 194.59261526679614 159.22058306941182 0.0
    vertex 174.11761526679595 166.57920558786927 0.0
    vertex 174.74929094941496 167.06390738679283 0.0
  endloop
endfacet
facet normal 0.0 0.0 -1.0
  outer loop
    vertex 194.59261526679614 159.22058306941182 0.0
    vertex 174.74929094941496 167.06390738679283 0.0
    vertex 175.23399274833852 167.6955830694118 0.0
  endloop
endfacet
facet normal 0.0 0.0 -1.0
  outer loop
    vertex 194.59261526679614 159.22058306941182 0.0
    vertex 175.23399274833852 167.6955830694118 0.0
    vertex 175.53868903697764 168.43118498184913 0.0
  endloop
endfacet
facet normal 0.0 0.0 -1.0
  outer loop
    vertex 194.59261526679614 159.22058306941182 0.0
    vertex 175.53868903697764 168.43118498184913 0.0
    vertex 175.64261526679599 169.22058306941182 0.0
  endloop
endfacet
facet normal 0.0 0.0 -1.0
  outer loop
    vertex 194.59261526679614 159.22058306941182 0.0
    vertex 175.64261526679599 169.22058306941182 0.0
    vertex 194.59261526679614 179.22058306941182 0.0
  endloop
endfacet
facet normal 0.7933533402912439 0.6087614290087094 0.0
  outer loop
    vertex 169.95123778525343 167.69558306941184 0.0
    vertex 170.435939584177 167.06390738679283 6.0
    vertex 170.435939584177 167.06390738679283 0.0
  endloop
endfacet
facet normal 0.7933533402912439 0.6087614290087094 0.0
  outer loop
    vertex 170.435939584177 167.06390738679283 6.0
    vertex 169.95123778525343 167.69558306941184 0.0
    vertex 169.95123778525343 167.69558306941184 6.0
  endloop
endfacet
facet normal -0.923879532511289 -0.38268343236508495 -0.0
  outer loop
    vertex 175.23399274833852 170.74558306941182 6.0
    vertex 175.53868903697764 170.0099811569745 0.0
    vertex 175.53868903697764 170.0099811569745 6.0
  endloop
endfacet
facet normal -0.923879532511289 -0.38268343236508495 -0.0
  outer loop
    vertex 175.53868903697764 170.0099811569745 0.0
    vertex 175.23399274833852 170.74558306941182 6.0
    vertex 175.23399274833852 170.74558306941182 0.0
  endloop
endfacet
facet normal 0.9914448613738107 0.13052619222005007 0.0
  outer loop
    vertex 169.54261526679596 169.22058306941182 0.0
    vertex 169.6465414966143 168.43118498184913 6.0
    vertex 169.6465414966143 168.43118498184913 0.0
  endloop
endfacet
facet normal 0.9914448613738107 0.13052619222005007 0.0
  outer loop
    vertex 169.6465414966143 168.43118498184913 6.0
    vertex 169.54261526679596 169.22058306941182 0.0
    vertex 169.54261526679596 169.22058306941182 6.0
  endloop
endfacet
facet normal 0.0 0.0 -1.0
  outer loop
    vertex 169.6465414966143 170.0099811569745 6.0
    vertex 169.6465414966143 168.43118498184913 6.0
    vertex 169.54261526679596 169.22058306941182 6.0
  endloop
endfacet
facet normal 0.0 0.0 -1.0
  outer loop
    vertex 169.6465414966143 168.43118498184913 6.0
    vertex 169.6465414966143 170.0099811569745 6.0
    vertex 169.95123778525343 170.74558306941185 6.0
  endloop
endfacet
facet normal 0.0 0.0 -1.0
  outer loop
    vertex 169.6465414966143 168.43118498184913 6.0
    vertex 169.95123778525343 170.74558306941185 6.0
    vertex 169.95123778525343 167.69558306941184 6.0
  endloop
endfacet
facet normal 0.0 0.0 -1.0
  outer loop
    vertex 169.95123778525343 167.69558306941184 6.0
    vertex 169.95123778525343 170.74558306941185 6.0
    vertex 170.435939584177 171.3772587520308 6.0
  endloop
endfacet
facet normal 0.0 0.0 -1.0
  outer loop
    vertex 169.95123778525343 167.69558306941184 6.0
    vertex 170.435939584177 171.3772587520308 6.0
    vertex 170.435939584177 167.06390738679283 6.0
  endloop
endfacet
facet normal 0.0 0.0 -1.0
  outer loop
    vertex 170.435939584177 167.06390738679283 6.0
    vertex 170.435939584177 171.3772587520308 6.0
    vertex 171.06761526679597 171.86196055095436 6.0
  endloop
endfacet
facet normal 0.0 0.0 -1.0
  outer loop
    vertex 170.435939584177 167.06390738679283 6.0
    vertex 171.06761526679597 171.86196055095436 6.0
    vertex 171.06761526679597 166.57920558786927 6.0
  endloop
endfacet
facet normal 0.0 0.0 -1.0
  outer loop
    vertex 171.06761526679597 166.57920558786927 6.0
    vertex 171.06761526679597 171.86196055095436 6.0
    vertex 171.8032171792333 166.27450929923015 6.0
  endloop
endfacet
facet normal 0.0 0.0 -1.0
  outer loop
    vertex 171.8032171792333 166.27450929923015 6.0
    vertex 171.06761526679597 171.86196055095436 6.0
    vertex 171.8032171792333 172.1666568395935 6.0
  endloop
endfacet
facet normal 0.0 0.0 -1.0
  outer loop
    vertex 171.8032171792333 166.27450929923015 6.0
    vertex 171.8032171792333 172.1666568395935 6.0
    vertex 172.59261526679597 172.27058306941183 6.0
  endloop
endfacet
facet normal 0.0 0.0 -1.0
  outer loop
    vertex 171.8032171792333 166.27450929923015 6.0
    vertex 172.59261526679597 172.27058306941183 6.0
    vertex 172.59261526679597 166.17058306941183 6.0
  endloop
endfacet
facet normal 0.0 0.0 -1.0
  outer loop
    vertex 172.59261526679597 166.17058306941183 6.0
    vertex 172.59261526679597 172.27058306941183 6.0
    vertex 173.38201335435866 172.1666568395935 6.0
  endloop
endfacet
facet normal 0.0 0.0 -1.0
  outer loop
    vertex 172.59261526679597 166.17058306941183 6.0
    vertex 173.38201335435866 172.1666568395935 6.0
    vertex 173.38201335435866 166.27450929923015 6.0
  endloop
endfacet
facet normal 0.0 0.0 -1.0
  outer loop
    vertex 173.38201335435866 166.27450929923015 6.0
    vertex 173.38201335435866 172.1666568395935 6.0
    vertex 174.11761526679598 171.86196055095436 6.0
  endloop
endfacet
facet normal 0.0 0.0 -1.0
  outer loop
    vertex 173.38201335435866 166.27450929923015 6.0
    vertex 174.11761526679598 171.86196055095436 6.0
    vertex 174.11761526679595 166.57920558786927 6.0
  endloop
endfacet
facet normal 0.0 0.0 -1.0
  outer loop
    vertex 174.11761526679595 166.57920558786927 6.0
    vertex 174.11761526679598 171.86196055095436 6.0
    vertex 174.74929094941496 167.06390738679283 6.0
  endloop
endfacet
facet normal 0.0 0.0 -1.0
  outer loop
    vertex 174.74929094941496 167.06390738679283 6.0
    vertex 174.11761526679598 171.86196055095436 6.0
    vertex 174.74929094941496 171.3772587520308 6.0
  endloop
endfacet
facet normal 0.0 0.0 -1.0
  outer loop
    vertex 174.74929094941496 167.06390738679283 6.0
    vertex 174.74929094941496 171.3772587520308 6.0
    vertex 175.23399274833852 170.74558306941182 6.0
  endloop
endfacet
facet normal 0.0 0.0 -1.0
  outer loop
    vertex 174.74929094941496 167.06390738679283 6.0
    vertex 175.23399274833852 170.74558306941182 6.0
    vertex 175.23399274833852 167.6955830694118 6.0
  endloop
endfacet
facet normal 0.0 0.0 -1.0
  outer loop
    vertex 175.23399274833852 167.6955830694118 6.0
    vertex 175.23399274833852 170.74558306941182 6.0
    vertex 175.53868903697764 170.0099811569745 6.0
  endloop
endfacet
facet normal 0.0 0.0 -1.0
  outer loop
    vertex 175.23399274833852 167.6955830694118 6.0
    vertex 175.53868903697764 170.0099811569745 6.0
    vertex 175.53868903697764 168.43118498184913 6.0
  endloop
endfacet
facet normal 0.0 0.0 -1.0
  outer loop
    vertex 175.53868903697764 168.43118498184913 6.0
    vertex 175.53868903697764 170.0099811569745 6.0
    vertex 175.64261526679599 169.22058306941182 6.0
  endloop
endfacet
facet normal 0.9914448613738107 -0.13052619222005007 0.0
  outer loop
    vertex 169.6465414966143 170.0099811569745 0.0
    vertex 169.54261526679596 169.22058306941182 6.0
    vertex 169.54261526679596 169.22058306941182 0.0
  endloop
endfacet
facet normal 0.9914448613738107 -0.13052619222005007 0.0
  outer loop
    vertex 169.54261526679596 169.22058306941182 6.0
    vertex 169.6465414966143 170.0099811569745 0.0
    vertex 169.6465414966143 170.0099811569745 6.0
  endloop
endfacet
facet normal 5.639834426891209e-15 9.60470235454974e-15 1.0
  outer loop
    vertex 158.59261526679597 159.22058306941184 8.0
    vertex 164.5926152667961 163.22058306941182 7.999999999999944
    vertex 158.59261526679597 179.22058306941182 8.0
  endloop
endfacet
facet normal 5.639834426891209e-15 9.60470235454974e-15 1.0
  outer loop
    vertex 164.5926152667961 163.22058306941182 7.999999999999944
    vertex 158.59261526679597 159.22058306941184 8.0
    vertex 194.59261526679614 159.22058306941182 8.0
  endloop
endfacet
facet normal 5.639834426891209e-15 9.60470235454974e-15 1.0
  outer loop
    vertex 164.5926152667961 163.22058306941182 7.999999999999944
    vertex 194.59261526679614 159.22058306941182 8.0
    vertex 176.59261526679603 163.22058306941182 7.999999999999792
  endloop
endfacet
facet normal 5.639834426891209e-15 9.60470235454974e-15 1.0
  outer loop
    vertex 176.59261526679603 163.22058306941182 7.999999999999792
    vertex 194.59261526679614 159.22058306941182 8.0
    vertex 176.59261526679603 175.22058306941176 7.999999999999792
  endloop
endfacet
facet normal 5.639834426891209e-15 9.60470235454974e-15 1.0
  outer loop
    vertex 176.59261526679603 175.22058306941176 7.999999999999792
    vertex 194.59261526679614 159.22058306941182 8.0
    vertex 186.98767103767017 166.22058306941182 8.0
  endloop
endfacet
facet normal 5.639834426891209e-15 9.60470235454974e-15 1.0
  outer loop
    vertex 186.98767103767017 166.22058306941182 8.0
    vertex 194.59261526679614 159.22058306941182 8.0
    vertex 194.59261526679614 166.22058306941182 8.0
  endloop
endfacet
facet normal 5.639834426891209e-15 9.60470235454974e-15 1.0
  outer loop
    vertex 158.59261526679597 179.22058306941182 8.0
    vertex 164.5926152667961 175.22058306941176 7.999999999999982
    vertex 194.59261526679614 179.22058306941182 8.0
  endloop
endfacet
facet normal 5.639834426891209e-15 9.60470235454974e-15 1.0
  outer loop
    vertex 164.5926152667961 175.22058306941176 7.999999999999982
    vertex 158.59261526679597 179.22058306941182 8.0
    vertex 164.5926152667961 163.22058306941182 7.999999999999944
  endloop
endfacet
facet normal 5.639834426891209e-15 9.60470235454974e-15 1.0
  outer loop
    vertex 194.59261526679614 179.22058306941182 8.0
    vertex 164.5926152667961 175.22058306941176 7.999999999999982
    vertex 176.59261526679603 175.22058306941176 7.999999999999792
  endloop
endfacet
facet normal 5.639834426891209e-15 9.60470235454974e-15 1.0
  outer loop
    vertex 194.59261526679614 179.22058306941182 8.0
    vertex 176.59261526679603 175.22058306941176 7.999999999999792
    vertex 186.98767103767017 172.22058306941187 7.999999999999303
  endloop
endfacet
facet normal 5.639834426891209e-15 9.60470235454974e-15 1.0
  outer loop
    vertex 186.98767103767017 172.22058306941187 7.999999999999303
    vertex 176.59261526679603 175.22058306941176 7.999999999999792
    vertex 186.98767103767017 166.22058306941182 8.0
  endloop
endfacet
facet normal 5.639834426891209e-15 9.60470235454974e-15 1.0
  outer loop
    vertex 194.59261526679614 179.22058306941182 8.0
    vertex 186.98767103767017 172.22058306941187 7.999999999999303
    vertex 194.59261526679614 172.22058306941187 7.999999999999303
  endloop
endfacet
facet normal -0.6087614290087231 -0.7933533402912333 -0.0
  outer loop
    vertex 174.74929094941496 171.3772587520308 6.0
    vertex 174.11761526679598 171.86196055095436 0.0
    vertex 174.74929094941496 171.3772587520308 0.0
  endloop
endfacet
facet normal -0.6087614290087231 -0.7933533402912333 -0.0
  outer loop
    vertex 174.11761526679598 171.86196055095436 0.0
    vertex 174.74929094941496 171.3772587520308 6.0
    vertex 174.11761526679598 171.86196055095436 6.0
  endloop
endfacet
facet normal -0.9914448613738107 0.13052619222005007 0.0
  outer loop
    vertex 175.64261526679599 169.22058306941182 6.0
    vertex 175.53868903697764 168.43118498184913 0.0
    vertex 175.53868903697764 168.43118498184913 6.0
  endloop
endfacet
facet normal -0.9914448613738107 0.13052619222005007 0.0
  outer loop
    vertex 175.53868903697764 168.43118498184913 0.0
    vertex 175.64261526679599 169.22058306941182 6.0
    vertex 175.64261526679599 169.22058306941182 0.0
  endloop
endfacet
facet normal -2.234271811597948e-15 0.7071067811865027 0.7071067811865923
  outer loop
    vertex 166.5926152667961 175.22058306941176 27.999999999999222
    vertex 180.59261526679614 177.22058306941173 25.999999999999574
    vertex 160.59261526679612 177.22058306941173 25.99999999999958
  endloop
endfacet
facet normal -2.234271811597948e-15 0.7071067811865027 0.7071067811865923
  outer loop
    vertex 180.59261526679614 177.22058306941173 25.999999999999574
    vertex 166.5926152667961 175.22058306941176 27.999999999999222
    vertex 174.5926152667961 175.22058306941176 27.999999999999417
  endloop
endfacet
facet normal -3.133296091719872e-16 -1.0 1.4099832412739485e-15
  outer loop
    vertex 194.59261526679614 159.22058306941182 8.0
    vertex 158.59261526679597 159.22058306941182 0.0
    vertex 194.59261526679614 159.22058306941182 0.0
  endloop
endfacet
facet normal -3.133296091719872e-16 -1.0 1.4099832412739485e-15
  outer loop
    vertex 158.59261526679597 159.22058306941182 0.0
    vertex 194.59261526679614 159.22058306941182 8.0
    vertex 158.59261526679597 159.22058306941184 8.0
  endloop
endfacet
facet normal 0.0 -1.0 0.0
  outer loop
    vertex 178.59261526679617 163.22058306941182 23.999999999999584
    vertex 162.5926152667962 163.22058306941182 17.999999999999584
    vertex 178.59261526679617 163.22058306941182 17.999999999999584
  endloop
endfacet
facet normal 0.0 -1.0 0.0
  outer loop
    vertex 162.5926152667962 163.22058306941182 17.999999999999584
    vertex 178.59261526679617 163.22058306941182 23.999999999999584
    vertex 162.5926152667962 163.22058306941182 23.999999999999606
  endloop
endfacet
facet normal -1.0 0.0 0.0
  outer loop
    vertex 178.59261526679617 177.22058306941173 23.999999999999584
    vertex 178.59261526679617 175.22058306941176 17.999999999999584
    vertex 178.59261526679617 175.22058306941176 23.999999999999584
  endloop
endfacet
facet normal -1.0 0.0 0.0
  outer loop
    vertex 178.59261526679617 175.22058306941176 17.999999999999584
    vertex 178.59261526679617 177.22058306941173 23.999999999999584
    vertex 178.59261526679617 177.22058306941173 17.999999999999584
  endloop
endfacet
facet normal -1.0574874309554636e-15 0.0 -1.0
  outer loop
    vertex 178.59261526679617 177.22058306941173 23.999999999999584
    vertex 162.5926152667962 175.22058306941176 23.999999999999602
    vertex 162.5926152667962 177.22058306941173 23.999999999999602
  endloop
endfacet
facet normal -1.0574874309554636e-15 0.0 -1.0
  outer loop
    vertex 162.5926152667962 175.22058306941176 23.999999999999602
    vertex 178.59261526679617 177.22058306941173 23.999999999999584
    vertex 178.59261526679617 175.22058306941176 23.999999999999584
  endloop
endfacet
facet normal -1.2337353361147114e-15 1.4099832412739513e-15 -1.0
  outer loop
    vertex 178.59261526679617 163.22058306941182 23.999999999999584
    vertex 162.5926152667962 161.22058306941173 23.999999999999602
    vertex 162.5926152667962 163.22058306941182 23.999999999999606
  endloop
endfacet
facet normal -1.2337353361147114e-15 1.4099832412739513e-15 -1.0
  outer loop
    vertex 162.5926152667962 161.22058306941173 23.999999999999602
    vertex 178.59261526679617 163.22058306941182 23.999999999999584
    vertex 178.59261526679617 161.22058306941182 23.999999999999584
  endloop
endfacet
facet normal -1.458593915658336e-15 0.9486832980505093 -0.3162277660168514
  outer loop
    vertex 164.5926152667961 175.22058306941176 7.999999999999982
    vertex 180.59261526679614 177.22058306941173 13.999999999999584
    vertex 176.59261526679603 175.22058306941176 7.999999999999792
  endloop
endfacet
facet normal -1.458593915658336e-15 0.9486832980505093 -0.3162277660168514
  outer loop
    vertex 180.59261526679614 177.22058306941173 13.999999999999584
    vertex 164.5926152667961 175.22058306941176 7.999999999999982
    vertex 160.59261526679612 177.22058306941173 13.999999999999597
  endloop
endfacet
facet normal -1.0 0.0 0.0
  outer loop
    vertex 178.59261526679617 163.22058306941182 23.999999999999584
    vertex 178.59261526679617 161.22058306941182 17.999999999999584
    vertex 178.59261526679617 161.22058306941182 23.999999999999584
  endloop
endfacet
facet normal -1.0 0.0 0.0
  outer loop
    vertex 178.59261526679617 161.22058306941182 17.999999999999584
    vertex 178.59261526679617 163.22058306941182 23.999999999999584
    vertex 178.59261526679617 163.22058306941182 17.999999999999584
  endloop
endfacet
facet normal 1.8203147975074754e-15 -0.9486832980505076 -0.3162277660168567
  outer loop
    vertex 180.59261526679614 161.22058306941182 13.999999999999584
    vertex 164.5926152667961 163.22058306941182 7.999999999999944
    vertex 176.59261526679603 163.22058306941182 7.999999999999792
  endloop
endfacet
facet normal 1.8203147975074754e-15 -0.9486832980505076 -0.3162277660168567
  outer loop
    vertex 164.5926152667961 163.22058306941182 7.999999999999944
    vertex 180.59261526679614 161.22058306941182 13.999999999999584
    vertex 160.59261526679612 161.22058306941173 13.999999999999607
  endloop
endfacet
facet normal 0.31622776601681196 0.0 0.9486832980505225
  outer loop
    vertex 180.59261526679614 161.22058306941182 25.999999999999574
    vertex 174.5926152667961 175.22058306941176 27.999999999999417
    vertex 174.5926152667961 163.22058306941182 27.999999999999417
  endloop
endfacet
facet normal 0.31622776601681196 0.0 0.9486832980505225
  outer loop
    vertex 174.5926152667961 175.22058306941176 27.999999999999417
    vertex 180.59261526679614 161.22058306941182 25.999999999999574
    vertex 180.59261526679614 177.22058306941173 25.999999999999574
  endloop
endfacet
facet normal 1.0 0.0 0.0
  outer loop
    vertex 162.5926152667962 163.22058306941182 17.999999999999584
    vertex 162.5926152667962 161.22058306941173 23.999999999999602
    vertex 162.5926152667962 161.22058306941173 17.999999999999584
  endloop
endfacet
facet normal 1.0 0.0 0.0
  outer loop
    vertex 162.5926152667962 161.22058306941173 23.999999999999602
    vertex 162.5926152667962 163.22058306941182 17.999999999999584
    vertex 162.5926152667962 163.22058306941182 23.999999999999606
  endloop
endfacet
facet normal 0.0 0.0 1.0
  outer loop
    vertex 178.59261526679617 175.22058306941176 17.999999999999584
    vertex 162.5926152667962 177.22058306941173 17.999999999999584
    vertex 162.5926152667962 175.22058306941176 17.999999999999584
  endloop
endfacet
facet normal 0.0 0.0 1.0
  outer loop
    vertex 162.5926152667962 177.22058306941173 17.999999999999584
    vertex 178.59261526679617 175.22058306941176 17.999999999999584
    vertex 178.59261526679617 177.22058306941173 17.999999999999584
  endloop
endfacet
facet normal 0.0 1.0 0.0
  outer loop
    vertex 162.5926152667962 175.22058306941176 23.999999999999602
    vertex 178.59261526679617 175.22058306941176 17.999999999999584
    vertex 162.5926152667962 175.22058306941176 17.999999999999584
  endloop
endfacet
facet normal 0.0 1.0 0.0
  outer loop
    vertex 178.59261526679617 175.22058306941176 17.999999999999584
    vertex 162.5926152667962 175.22058306941176 23.999999999999602
    vertex 178.59261526679617 175.22058306941176 23.999999999999584
  endloop
endfacet
facet normal -0.8320502943378287 4.035239956203999e-16 -0.5547001962252516
  outer loop
    vertex 160.59261526679612 177.22058306941173 13.999999999999597
    vertex 164.5926152667961 163.22058306941182 7.999999999999944
    vertex 160.59261526679612 161.22058306941173 13.999999999999607
  endloop
endfacet
facet normal -0.8320502943378287 4.035239956203999e-16 -0.5547001962252516
  outer loop
    vertex 164.5926152667961 163.22058306941182 7.999999999999944
    vertex 160.59261526679612 177.22058306941173 13.999999999999597
    vertex 164.5926152667961 175.22058306941176 7.999999999999982
  endloop
endfacet
facet normal 0.0 0.0 1.0
  outer loop
    vertex 162.5926152667962 163.22058306941182 17.999999999999584
    vertex 160.59261526679612 175.22058306941176 17.999999999999584
    vertex 160.59261526679612 163.22058306941182 17.999999999999584
  endloop
endfacet
facet normal 0.0 0.0 1.0
  outer loop
    vertex 160.59261526679612 175.22058306941176 17.999999999999584
    vertex 162.5926152667962 163.22058306941182 17.999999999999584
    vertex 162.5926152667962 175.22058306941176 17.999999999999584
  endloop
endfacet
facet normal 0.0 1.0 0.0
  outer loop
    vertex 160.59261526679612 163.22058306941182 23.999999999999606
    vertex 162.5926152667962 163.22058306941182 17.999999999999584
    vertex 160.59261526679612 163.22058306941182 17.999999999999584
  endloop
endfacet
facet normal 0.0 1.0 0.0
  outer loop
    vertex 162.5926152667962 163.22058306941182 17.999999999999584
    vertex 160.59261526679612 163.22058306941182 23.999999999999606
    vertex 162.5926152667962 163.22058306941182 23.999999999999606
  endloop
endfacet
facet normal -2.150224442942776e-14 2.114974861910935e-15 1.0
  outer loop
    vertex 174.5926152667961 163.22058306941182 27.999999999999417
    vertex 166.5926152667961 175.22058306941176 27.999999999999222
    vertex 166.5926152667961 163.22058306941182 27.99999999999927
  endloop
endfacet
facet normal -2.150224442942776e-14 2.114974861910935e-15 1.0
  outer loop
    vertex 166.5926152667961 175.22058306941176 27.999999999999222
    vertex 174.5926152667961 163.22058306941182 27.999999999999417
    vertex 174.5926152667961 175.22058306941176 27.999999999999417
  endloop
endfacet
facet normal 0.8320502943378266 0.0 -0.5547001962252547
  outer loop
    vertex 176.59261526679603 163.22058306941182 7.999999999999792
    vertex 180.59261526679614 177.22058306941173 13.999999999999584
    vertex 180.59261526679614 161.22058306941182 13.999999999999584
  endloop
endfacet
facet normal 0.8320502943378266 0.0 -0.5547001962252547
  outer loop
    vertex 180.59261526679614 177.22058306941173 13.999999999999584
    vertex 176.59261526679603 163.22058306941182 7.999999999999792
    vertex 176.59261526679603 175.22058306941176 7.999999999999792
  endloop
endfacet
facet normal 8.4598994476436545e-16 7.049916206369777e-16 1.0
  outer loop
    vertex 160.59261526679612 161.22058306941173 25.999999999999602
    vertex 162.5926152667962 163.22058306941182 25.999999999999602
    vertex 160.59261526679612 177.22058306941173 25.99999999999958
  endloop
endfacet
facet normal 8.4598994476436545e-16 7.049916206369777e-16 1.0
  outer loop
    vertex 162.5926152667962 163.22058306941182 25.999999999999602
    vertex 160.59261526679612 161.22058306941173 25.999999999999602
    vertex 180.59261526679614 161.22058306941182 25.999999999999574
  endloop
endfacet
facet normal 8.4598994476436545e-16 7.049916206369777e-16 1.0
  outer loop
    vertex 162.5926152667962 163.22058306941182 25.999999999999602
    vertex 180.59261526679614 161.22058306941182 25.999999999999574
    vertex 178.59261526679617 163.22058306941182 25.99999999999958
  endloop
endfacet
facet normal 8.4598994476436545e-16 7.049916206369777e-16 1.0
  outer loop
    vertex 178.59261526679617 163.22058306941182 25.99999999999958
    vertex 180.59261526679614 161.22058306941182 25.999999999999574
    vertex 178.59261526679617 175.22058306941176 25.99999999999958
  endloop
endfacet
facet normal 8.4598994476436545e-16 7.049916206369777e-16 1.0
  outer loop
    vertex 160.59261526679612 177.22058306941173 25.99999999999958
    vertex 162.5926152667962 175.22058306941176 25.99999999999958
    vertex 180.59261526679614 177.22058306941173 25.999999999999574
  endloop
endfacet
facet normal 8.4598994476436545e-16 7.049916206369777e-16 1.0
  outer loop
    vertex 162.5926152667962 175.22058306941176 25.99999999999958
    vertex 160.59261526679612 177.22058306941173 25.99999999999958
    vertex 162.5926152667962 163.22058306941182 25.999999999999602
  endloop
endfacet
facet normal 8.4598994476436545e-16 7.049916206369777e-16 1.0
  outer loop
    vertex 180.59261526679614 177.22058306941173 25.999999999999574
    vertex 162.5926152667962 175.22058306941176 25.99999999999958
    vertex 178.59261526679617 175.22058306941176 25.99999999999958
  endloop
endfacet
facet normal 8.4598994476436545e-16 7.049916206369777e-16 1.0
  outer loop
    vertex 180.59261526679614 177.22058306941173 25.999999999999574
    vertex 178.59261526679617 175.22058306941176 25.99999999999958
    vertex 180.59261526679614 161.22058306941182 25.999999999999574
  endloop
endfacet
facet normal 0.0 -1.0 0.0
  outer loop
    vertex 178.59261526679617 163.22058306941182 25.99999999999958
    vertex 162.5926152667962 163.22058306941182 23.999999999999606
    vertex 178.59261526679617 163.22058306941182 23.999999999999584
  endloop
endfacet
facet normal 0.0 -1.0 0.0
  outer loop
    vertex 162.5926152667962 163.22058306941182 23.999999999999606
    vertex 178.59261526679617 163.22058306941182 25.99999999999958
    vertex 162.5926152667962 163.22058306941182 25.999999999999602
  endloop
endfacet
facet normal 0.0 -1.0 0.0
  outer loop
    vertex 162.5926152667962 175.22058306941176 23.999999999999602
    vertex 160.59261526679612 175.22058306941176 17.999999999999584
    vertex 162.5926152667962 175.22058306941176 17.999999999999584
  endloop
endfacet
facet normal 0.0 -1.0 0.0
  outer loop
    vertex 160.59261526679612 175.22058306941176 17.999999999999584
    vertex 162.5926152667962 175.22058306941176 23.999999999999602
    vertex 160.59261526679612 175.22058306941176 23.999999999999602
  endloop
endfacet
facet normal 1.0 0.0 0.0
  outer loop
    vertex 180.59261526679614 161.22058306941182 13.999999999999584
    vertex 180.59261526679614 163.22058306941182 17.999999999999584
    vertex 180.59261526679614 161.22058306941182 25.999999999999574
  endloop
endfacet
facet normal 1.0 0.0 0.0
  outer loop
    vertex 180.59261526679614 163.22058306941182 17.999999999999584
    vertex 180.59261526679614 161.22058306941182 13.999999999999584
    vertex 180.59261526679614 177.22058306941173 13.999999999999584
  endloop
endfacet
facet normal 1.0 0.0 0.0
  outer loop
    vertex 180.59261526679614 163.22058306941182 17.999999999999584
    vertex 180.59261526679614 177.22058306941173 13.999999999999584
    vertex 180.59261526679614 175.22058306941176 17.999999999999584
  endloop
endfacet
facet normal 1.0 0.0 0.0
  outer loop
    vertex 180.59261526679614 175.22058306941176 17.999999999999584
    vertex 180.59261526679614 177.22058306941173 13.999999999999584
    vertex 180.59261526679614 175.22058306941176 23.999999999999584
  endloop
endfacet
facet normal 1.0 0.0 0.0
  outer loop
    vertex 180.59261526679614 161.22058306941182 25.999999999999574
    vertex 180.59261526679614 163.22058306941182 23.999999999999584
    vertex 180.59261526679614 177.22058306941173 25.999999999999574
  endloop
endfacet
facet normal 1.0 0.0 0.0
  outer loop
    vertex 180.59261526679614 163.22058306941182 23.999999999999584
    vertex 180.59261526679614 161.22058306941182 25.999999999999574
    vertex 180.59261526679614 163.22058306941182 17.999999999999584
  endloop
endfacet
facet normal 1.0 0.0 0.0
  outer loop
    vertex 180.59261526679614 177.22058306941173 25.999999999999574
    vertex 180.59261526679614 163.22058306941182 23.999999999999584
    vertex 180.59261526679614 175.22058306941176 23.999999999999584
  endloop
endfacet
facet normal 1.0 0.0 0.0
  outer loop
    vertex 180.59261526679614 177.22058306941173 25.999999999999574
    vertex 180.59261526679614 175.22058306941176 23.999999999999584
    vertex 180.59261526679614 177.22058306941173 13.999999999999584
  endloop
endfacet
facet normal -0.3162277660167894 2.305749425566213e-15 0.94868329805053
  outer loop
    vertex 166.5926152667961 163.22058306941182 27.99999999999927
    vertex 160.59261526679612 177.22058306941173 25.99999999999958
    vertex 160.59261526679612 161.22058306941173 25.999999999999602
  endloop
endfacet
facet normal -0.3162277660167894 2.305749425566213e-15 0.94868329805053
  outer loop
    vertex 160.59261526679612 177.22058306941173 25.99999999999958
    vertex 166.5926152667961 163.22058306941182 27.99999999999927
    vertex 166.5926152667961 175.22058306941176 27.999999999999222
  endloop
endfacet
facet normal 4.5119463720766244e-15 -1.0 -1.9438737908810608e-31
  outer loop
    vertex 180.59261526679614 161.22058306941182 13.999999999999584
    vertex 178.59261526679617 161.22058306941182 17.999999999999584
    vertex 160.59261526679612 161.22058306941173 13.999999999999607
  endloop
endfacet
facet normal 4.5119463720766244e-15 -1.0 -1.9438737908810608e-31
  outer loop
    vertex 178.59261526679617 161.22058306941182 17.999999999999584
    vertex 180.59261526679614 161.22058306941182 13.999999999999584
    vertex 180.59261526679614 161.22058306941182 25.999999999999574
  endloop
endfacet
facet normal 4.5119463720766244e-15 -1.0 -1.9438737908810608e-31
  outer loop
    vertex 178.59261526679617 161.22058306941182 17.999999999999584
    vertex 180.59261526679614 161.22058306941182 25.999999999999574
    vertex 178.59261526679617 161.22058306941182 23.999999999999584
  endloop
endfacet
facet normal 4.5119463720766244e-15 -1.0 -1.9438737908810608e-31
  outer loop
    vertex 178.59261526679617 161.22058306941182 23.999999999999584
    vertex 180.59261526679614 161.22058306941182 25.999999999999574
    vertex 162.5926152667962 161.22058306941173 23.999999999999602
  endloop
endfacet
facet normal 4.5119463720766244e-15 -1.0 -1.9438737908810608e-31
  outer loop
    vertex 160.59261526679612 161.22058306941173 13.999999999999607
    vertex 162.5926152667962 161.22058306941173 17.999999999999584
    vertex 160.59261526679612 161.22058306941173 25.999999999999602
  endloop
endfacet
facet normal 4.5119463720766244e-15 -1.0 -1.9438737908810608e-31
  outer loop
    vertex 162.5926152667962 161.22058306941173 17.999999999999584
    vertex 160.59261526679612 161.22058306941173 13.999999999999607
    vertex 178.59261526679617 161.22058306941182 17.999999999999584
  endloop
endfacet
facet normal 4.5119463720766244e-15 -1.0 -1.9438737908810608e-31
  outer loop
    vertex 160.59261526679612 161.22058306941173 25.999999999999602
    vertex 162.5926152667962 161.22058306941173 17.999999999999584
    vertex 162.5926152667962 161.22058306941173 23.999999999999602
  endloop
endfacet
facet normal 4.5119463720766244e-15 -1.0 -1.9438737908810608e-31
  outer loop
    vertex 160.59261526679612 161.22058306941173 25.999999999999602
    vertex 162.5926152667962 161.22058306941173 23.999999999999602
    vertex 180.59261526679614 161.22058306941182 25.999999999999574
  endloop
endfacet
facet normal 0.0 0.0 1.0
  outer loop
    vertex 180.59261526679614 163.22058306941182 17.999999999999584
    vertex 178.59261526679617 175.22058306941176 17.999999999999584
    vertex 178.59261526679617 163.22058306941182 17.999999999999584
  endloop
endfacet
facet normal 0.0 0.0 1.0
  outer loop
    vertex 178.59261526679617 175.22058306941176 17.999999999999584
    vertex 180.59261526679614 163.22058306941182 17.999999999999584
    vertex 180.59261526679614 175.22058306941176 17.999999999999584
  endloop
endfacet
facet normal 0.0 1.0 0.0
  outer loop
    vertex 162.5926152667962 175.22058306941176 23.999999999999602
    vertex 178.59261526679617 175.22058306941176 25.99999999999958
    vertex 178.59261526679617 175.22058306941176 23.999999999999584
  endloop
endfacet
facet normal 0.0 1.0 0.0
  outer loop
    vertex 178.59261526679617 175.22058306941176 25.99999999999958
    vertex 162.5926152667962 175.22058306941176 23.999999999999602
    vertex 162.5926152667962 175.22058306941176 25.99999999999958
  endloop
endfacet
facet normal 0.0 -1.0 0.0
  outer loop
    vertex 180.59261526679614 175.22058306941176 23.999999999999584
    vertex 178.59261526679617 175.22058306941176 17.999999999999584
    vertex 180.59261526679614 175.22058306941176 17.999999999999584
  endloop
endfacet
facet normal 0.0 -1.0 0.0
  outer loop
    vertex 178.59261526679617 175.22058306941176 17.999999999999584
    vertex 180.59261526679614 175.22058306941176 23.999999999999584
    vertex 178.59261526679617 175.22058306941176 23.999999999999584
  endloop
endfacet
facet normal 1.0 0.0 0.0
  outer loop
    vertex 162.5926152667962 177.22058306941173 17.999999999999584
    vertex 162.5926152667962 175.22058306941176 23.999999999999602
    vertex 162.5926152667962 175.22058306941176 17.999999999999584
  endloop
endfacet
facet normal 1.0 0.0 0.0
  outer loop
    vertex 162.5926152667962 175.22058306941176 23.999999999999602
    vertex 162.5926152667962 177.22058306941173 17.999999999999584
    vertex 162.5926152667962 177.22058306941173 23.999999999999602
  endloop
endfacet
facet normal 0.0 0.0 1.0
  outer loop
    vertex 178.59261526679617 161.22058306941182 17.999999999999584
    vertex 162.5926152667962 163.22058306941182 17.999999999999584
    vertex 162.5926152667962 161.22058306941173 17.999999999999584
  endloop
endfacet
facet normal 0.0 0.0 1.0
  outer loop
    vertex 162.5926152667962 163.22058306941182 17.999999999999584
    vertex 178.59261526679617 161.22058306941182 17.999999999999584
    vertex 178.59261526679617 163.22058306941182 17.999999999999584
  endloop
endfacet
facet normal 0.0 0.0 -1.0
  outer loop
    vertex 180.59261526679614 175.22058306941176 23.999999999999584
    vertex 178.59261526679617 163.22058306941182 23.999999999999584
    vertex 178.59261526679617 175.22058306941176 23.999999999999584
  endloop
endfacet
facet normal 0.0 0.0 -1.0
  outer loop
    vertex 178.59261526679617 163.22058306941182 23.999999999999584
    vertex 180.59261526679614 175.22058306941176 23.999999999999584
    vertex 180.59261526679614 163.22058306941182 23.999999999999584
  endloop
endfacet
facet normal 1.0 0.0 0.0
  outer loop
    vertex 178.59261526679617 175.22058306941176 23.999999999999584
    vertex 178.59261526679617 163.22058306941182 25.99999999999958
    vertex 178.59261526679617 163.22058306941182 23.999999999999584
  endloop
endfacet
facet normal 1.0 0.0 0.0
  outer loop
    vertex 178.59261526679617 163.22058306941182 25.99999999999958
    vertex 178.59261526679617 175.22058306941176 23.999999999999584
    vertex 178.59261526679617 175.22058306941176 25.99999999999958
  endloop
endfacet
facet normal -1.0 0.0 0.0
  outer loop
    vertex 160.59261526679612 161.22058306941173 25.999999999999602
    vertex 160.59261526679612 163.22058306941182 23.999999999999606
    vertex 160.59261526679612 161.22058306941173 13.999999999999607
  endloop
endfacet
facet normal -1.0 0.0 0.0
  outer loop
    vertex 160.59261526679612 163.22058306941182 23.999999999999606
    vertex 160.59261526679612 161.22058306941173 25.999999999999602
    vertex 160.59261526679612 177.22058306941173 25.99999999999958
  endloop
endfacet
facet normal -1.0 0.0 0.0
  outer loop
    vertex 160.59261526679612 163.22058306941182 23.999999999999606
    vertex 160.59261526679612 177.22058306941173 25.99999999999958
    vertex 160.59261526679612 175.22058306941176 23.999999999999602
  endloop
endfacet
facet normal -1.0 0.0 0.0
  outer loop
    vertex 160.59261526679612 175.22058306941176 23.999999999999602
    vertex 160.59261526679612 177.22058306941173 25.99999999999958
    vertex 160.59261526679612 175.22058306941176 17.999999999999584
  endloop
endfacet
facet normal -1.0 0.0 0.0
  outer loop
    vertex 160.59261526679612 161.22058306941173 13.999999999999607
    vertex 160.59261526679612 163.22058306941182 17.999999999999584
    vertex 160.59261526679612 177.22058306941173 13.999999999999597
  endloop
endfacet
facet normal -1.0 0.0 0.0
  outer loop
    vertex 160.59261526679612 163.22058306941182 17.999999999999584
    vertex 160.59261526679612 161.22058306941173 13.999999999999607
    vertex 160.59261526679612 163.22058306941182 23.999999999999606
  endloop
endfacet
facet normal -1.0 0.0 0.0
  outer loop
    vertex 160.59261526679612 177.22058306941173 13.999999999999597
    vertex 160.59261526679612 163.22058306941182 17.999999999999584
    vertex 160.59261526679612 175.22058306941176 17.999999999999584
  endloop
endfacet
facet normal -1.0 0.0 0.0
  outer loop
    vertex 160.59261526679612 177.22058306941173 13.999999999999597
    vertex 160.59261526679612 175.22058306941176 17.999999999999584
    vertex 160.59261526679612 177.22058306941173 25.99999999999958
  endloop
endfacet
facet normal 1.0 0.0 0.0
  outer loop
    vertex 178.59261526679617 175.22058306941176 17.999999999999584
    vertex 178.59261526679617 163.22058306941182 23.999999999999584
    vertex 178.59261526679617 163.22058306941182 17.999999999999584
  endloop
endfacet
facet normal 1.0 0.0 0.0
  outer loop
    vertex 178.59261526679617 163.22058306941182 23.999999999999584
    vertex 178.59261526679617 175.22058306941176 17.999999999999584
    vertex 178.59261526679617 175.22058306941176 23.999999999999584
  endloop
endfacet
facet normal 0.0 -4.699944137579856e-16 -1.0
  outer loop
    vertex 162.5926152667962 175.22058306941176 23.999999999999602
    vertex 160.59261526679612 163.22058306941182 23.999999999999606
    vertex 160.59261526679612 175.22058306941176 23.999999999999602
  endloop
endfacet
facet normal 0.0 -4.699944137579856e-16 -1.0
  outer loop
    vertex 160.59261526679612 163.22058306941182 23.999999999999606
    vertex 162.5926152667962 175.22058306941176 23.999999999999602
    vertex 162.5926152667962 163.22058306941182 23.999999999999606
  endloop
endfacet
facet normal 0.0 1.0 0.0
  outer loop
    vertex 178.59261526679617 163.22058306941182 23.999999999999584
    vertex 180.59261526679614 163.22058306941182 17.999999999999584
    vertex 178.59261526679617 163.22058306941182 17.999999999999584
  endloop
endfacet
facet normal 0.0 1.0 0.0
  outer loop
    vertex 180.59261526679614 163.22058306941182 17.999999999999584
    vertex 178.59261526679617 163.22058306941182 23.999999999999584
    vertex 180.59261526679614 163.22058306941182 23.999999999999584
  endloop
endfacet
facet normal -1.0 0.0 0.0
  outer loop
    vertex 162.5926152667962 175.22058306941176 25.99999999999958
    vertex 162.5926152667962 163.22058306941182 23.999999999999606
    vertex 162.5926152667962 163.22058306941182 25.999999999999602
  endloop
endfacet
facet normal -1.0 0.0 0.0
  outer loop
    vertex 162.5926152667962 163.22058306941182 23.999999999999606
    vertex 162.5926152667962 175.22058306941176 25.99999999999958
    vertex 162.5926152667962 175.22058306941176 23.999999999999602
  endloop
endfacet
facet normal 0.0 1.0 0.0
  outer loop
    vertex 160.59261526679612 177.22058306941173 25.99999999999958
    vertex 162.5926152667962 177.22058306941173 17.999999999999584
    vertex 160.59261526679612 177.22058306941173 13.999999999999597
  endloop
endfacet
facet normal 0.0 1.0 0.0
  outer loop
    vertex 162.5926152667962 177.22058306941173 17.999999999999584
    vertex 160.59261526679612 177.22058306941173 25.99999999999958
    vertex 162.5926152667962 177.22058306941173 23.999999999999602
  endloop
endfacet
facet normal 0.0 1.0 0.0
  outer loop
    vertex 162.5926152667962 177.22058306941173 23.999999999999602
    vertex 160.59261526679612 177.22058306941173 25.99999999999958
    vertex 180.59261526679614 177.22058306941173 25.999999999999574
  endloop
endfacet
facet normal 0.0 1.0 0.0
  outer loop
    vertex 180.59261526679614 177.22058306941173 13.999999999999584
    vertex 178.59261526679617 177.22058306941173 17.999999999999584
    vertex 180.59261526679614 177.22058306941173 25.999999999999574
  endloop
endfacet
facet normal 0.0 1.0 0.0
  outer loop
    vertex 178.59261526679617 177.22058306941173 17.999999999999584
    vertex 180.59261526679614 177.22058306941173 13.999999999999584
    vertex 160.59261526679612 177.22058306941173 13.999999999999597
  endloop
endfacet
facet normal 0.0 1.0 0.0
  outer loop
    vertex 178.59261526679617 177.22058306941173 17.999999999999584
    vertex 160.59261526679612 177.22058306941173 13.999999999999597
    vertex 162.5926152667962 177.22058306941173 17.999999999999584
  endloop
endfacet
facet normal 0.0 1.0 0.0
  outer loop
    vertex 180.59261526679614 177.22058306941173 25.999999999999574
    vertex 178.59261526679617 177.22058306941173 17.999999999999584
    vertex 178.59261526679617 177.22058306941173 23.999999999999584
  endloop
endfacet
facet normal 0.0 1.0 0.0
  outer loop
    vertex 180.59261526679614 177.22058306941173 25.999999999999574
    vertex 178.59261526679617 177.22058306941173 23.999999999999584
    vertex 162.5926152667962 177.22058306941173 23.999999999999602
  endloop
endfacet
facet normal -1.0 0.0 0.0
  outer loop
    vertex 162.5926152667962 175.22058306941176 23.999999999999602
    vertex 162.5926152667962 163.22058306941182 17.999999999999584
    vertex 162.5926152667962 163.22058306941182 23.999999999999606
  endloop
endfacet
facet normal -1.0 0.0 0.0
  outer loop
    vertex 162.5926152667962 163.22058306941182 17.999999999999584
    vertex 162.5926152667962 175.22058306941176 23.999999999999602
    vertex 162.5926152667962 175.22058306941176 17.999999999999584
  endloop
endfacet
facet normal -0.7158820642886797 -8.113129013408343e-14 -0.6982212185473732
  outer loop
    vertex 186.05537666892633 166.22058306941193 8.955875873565677
    vertex 186.98767103767017 172.22058306941187 7.999999999999303
    vertex 186.98767103767017 166.22058306941182 8.0
  endloop
endfacet
facet normal -0.7158820642886797 -8.113129013408343e-14 -0.6982212185473732
  outer loop
    vertex 186.98767103767017 172.22058306941187 7.999999999999303
    vertex 186.05537666892633 166.22058306941193 8.955875873565677
    vertex 186.05537666892633 172.22058306941193 8.955875873564981
  endloop
endfacet
facet normal -0.9946068827678791 -1.2041669136597734e-14 -0.1037166753746122
  outer loop
    vertex 184.79031624412164 166.22058306941236 12.686835821717972
    vertex 184.92880310630423 172.2205830694122 11.358794927596348
    vertex 184.92880310630423 166.22058306941219 11.358794927597044
  endloop
endfacet
facet normal -0.9946068827678791 -1.2041669136597734e-14 -0.1037166753746122
  outer loop
    vertex 184.92880310630423 172.2205830694122 11.358794927596348
    vertex 184.79031624412164 166.22058306941236 12.686835821717972
    vertex 184.79031624412164 172.22058306941236 12.686835821717276
  endloop
endfacet
facet normal -0.9929161275678747 1.3794881677336255e-14 0.11881735401706267
  outer loop
    vertex 184.94896616553888 166.2205830694125 14.012619137763973
    vertex 184.79031624412164 172.22058306941236 12.686835821717276
    vertex 184.79031624412164 166.22058306941236 12.686835821717972
  endloop
endfacet
facet normal -0.9929161275678747 1.3794881677336255e-14 0.11881735401706267
  outer loop
    vertex 184.79031624412164 172.22058306941236 12.686835821717276
    vertex 184.94896616553888 166.2205830694125 14.012619137763973
    vertex 184.94896616553888 172.22058306941253 14.012619137763277
  endloop
endfacet
facet normal -0.9470405626874451 -3.7281835319200105e-14 -0.32111395582354824
  outer loop
    vertex 184.92880310630423 166.22058306941219 11.358794927597044
    vertex 185.3575679264031 172.22058306941204 10.094266653060219
    vertex 185.3575679264031 166.22058306941204 10.094266653060915
  endloop
endfacet
facet normal -0.9470405626874451 -3.7281835319200105e-14 -0.32111395582354824
  outer loop
    vertex 185.3575679264031 172.22058306941204 10.094266653060219
    vertex 184.92880310630423 166.22058306941219 11.358794927597044
    vertex 184.92880310630423 172.2205830694122 11.358794927596348
  endloop
endfacet
facet normal -0.9420520059062474 3.894823076220374e-14 0.3354668659763822
  outer loop
    vertex 185.39689554786307 166.22058306941267 15.270486354827883
    vertex 184.94896616553888 172.22058306941253 14.012619137763277
    vertex 184.94896616553888 166.2205830694125 14.012619137763973
  endloop
endfacet
facet normal -0.9420520059062474 3.894823076220374e-14 0.3354668659763822
  outer loop
    vertex 184.94896616553888 172.22058306941253 14.012619137763277
    vertex 185.39689554786307 166.22058306941267 15.270486354827883
    vertex 185.39689554786307 172.22058306941264 15.270486354827186
  endloop
endfacet
facet normal -0.844533462368729 6.217271538189223e-14 0.5355027833162835
  outer loop
    vertex 186.1119214496575 166.22058306941278 16.39814305305481
    vertex 185.39689554786307 172.22058306941264 15.270486354827186
    vertex 185.39689554786307 166.22058306941267 15.270486354827883
  endloop
endfacet
facet normal -0.844533462368729 6.217271538189223e-14 0.5355027833162835
  outer loop
    vertex 185.39689554786307 172.22058306941264 15.270486354827186
    vertex 186.1119214496575 166.22058306941278 16.39814305305481
    vertex 186.1119214496575 172.22058306941278 16.398143053054113
  endloop
endfacet
facet normal -0.8525727681148988 -6.067567222959897e-14 -0.5226085294643582
  outer loop
    vertex 185.3575679264031 166.22058306941204 10.094266653060915
    vertex 186.05537666892633 172.22058306941193 8.955875873564981
    vertex 186.05537666892633 166.22058306941193 8.955875873565677
  endloop
endfacet
facet normal -0.8525727681148988 -6.067567222959897e-14 -0.5226085294643582
  outer loop
    vertex 186.05537666892633 172.22058306941193 8.955875873564981
    vertex 185.3575679264031 166.22058306941204 10.094266653060915
    vertex 185.3575679264031 172.22058306941204 10.094266653060219
  endloop
endfacet
facet normal -0.7051902241455282 8.231028802453433e-14 0.709018157573965
  outer loop
    vertex 187.05863227462393 166.2205830694129 17.339742660522464
    vertex 186.1119214496575 172.22058306941278 16.398143053054113
    vertex 186.1119214496575 166.22058306941278 16.39814305305481
  endloop
endfacet
facet normal -0.7051902241455282 8.231028802453433e-14 0.709018157573965
  outer loop
    vertex 186.1119214496575 172.22058306941278 16.398143053054113
    vertex 187.05863227462393 166.2205830694129 17.339742660522464
    vertex 187.05863227462393 172.2205830694129 17.339742660521768
  endloop
endfacet
facet normal 0.844533462368729 6.217271538189225e-14 0.5355027833162836
  outer loop
    vertex 196.18339075660333 172.22058306941264 15.270486354827186
    vertex 195.4683648548089 166.22058306941278 16.39814305305481
    vertex 196.18339075660333 166.22058306941267 15.270486354827883
  endloop
endfacet
facet normal 0.844533462368729 6.217271538189225e-14 0.5355027833162836
  outer loop
    vertex 195.4683648548089 166.22058306941278 16.39814305305481
    vertex 196.18339075660333 172.22058306941264 15.270486354827186
    vertex 195.4683648548089 172.22058306941278 16.398143053054113
  endloop
endfacet
facet normal 0.9470405626874451 -3.7281835319200105e-14 -0.32111395582354824
  outer loop
    vertex 196.2227183780633 172.22058306941204 10.094266653060219
    vertex 196.65148319816217 166.22058306941219 11.358794927597044
    vertex 196.2227183780633 166.22058306941204 10.094266653060915
  endloop
endfacet
facet normal 0.9470405626874451 -3.7281835319200105e-14 -0.32111395582354824
  outer loop
    vertex 196.65148319816217 166.22058306941219 11.358794927597044
    vertex 196.2227183780633 172.22058306941204 10.094266653060219
    vertex 196.65148319816217 172.2205830694122 11.358794927596348
  endloop
endfacet
facet normal 0.9420520059062474 3.8948230762203734e-14 0.33546686597638214
  outer loop
    vertex 196.63132013892755 172.22058306941253 14.012619137763277
    vertex 196.18339075660333 166.22058306941267 15.270486354827883
    vertex 196.63132013892755 166.2205830694125 14.012619137763973
  endloop
endfacet
facet normal 0.9420520059062474 3.8948230762203734e-14 0.33546686597638214
  outer loop
    vertex 196.18339075660333 166.22058306941267 15.270486354827883
    vertex 196.63132013892755 172.22058306941253 14.012619137763277
    vertex 196.18339075660333 172.22058306941264 15.270486354827186
  endloop
endfacet
facet normal -0.8226470742778688 6.600982373806842e-14 0.5685523645030974
  outer loop
    vertex 193.49960460280997 166.22058306941219 11.353299379348753
    vertex 192.95272388076407 172.2205830694121 10.562009334563506
    vertex 192.95272388076407 166.2205830694121 10.562009334564204
  endloop
endfacet
facet normal -0.8226470742778688 6.600982373806842e-14 0.5685523645030974
  outer loop
    vertex 192.95272388076407 172.2205830694121 10.562009334563506
    vertex 193.49960460280997 166.22058306941219 11.353299379348753
    vertex 193.49960460280997 172.2205830694122 11.353299379348057
  endloop
endfacet
facet normal 1.0 0.0 0.0
  outer loop
    vertex 188.19014324760064 172.22058306941253 14.13791358470847
    vertex 188.19014324760064 166.22058306941292 17.339742660522344
    vertex 188.19014324760064 166.22058306941253 14.137913584709166
  endloop
endfacet
facet normal 1.0 0.0 0.0
  outer loop
    vertex 188.19014324760064 166.22058306941292 17.339742660522344
    vertex 188.19014324760064 172.22058306941253 14.13791358470847
    vertex 188.19014324760064 172.2205830694129 17.339742660521768
  endloop
endfacet
facet normal 0.0 1.1610157280017575e-13 1.0
  outer loop
    vertex 191.27108453726396 166.22058306941204 9.680052280426022
    vertex 190.30920176720244 172.220583069412 9.680052280425326
    vertex 190.30920176720244 166.22058306941204 9.680052280426022
  endloop
endfacet
facet normal 0.0 1.1610157280017575e-13 1.0
  outer loop
    vertex 190.30920176720244 172.220583069412 9.680052280425326
    vertex 191.27108453726396 166.22058306941204 9.680052280426022
    vertex 191.27108453726396 172.220583069412 9.680052280425326
  endloop
endfacet
facet normal 0.7051902241455281 8.231028802453433e-14 0.709018157573965
  outer loop
    vertex 195.4683648548089 166.22058306941278 16.39814305305481
    vertex 194.52165402984247 172.2205830694129 17.339742660521768
    vertex 194.52165402984247 166.2205830694129 17.339742660522464
  endloop
endfacet
facet normal 0.7051902241455281 8.231028802453433e-14 0.709018157573965
  outer loop
    vertex 194.52165402984247 172.2205830694129 17.339742660521768
    vertex 195.4683648548089 166.22058306941278 16.39814305305481
    vertex 195.4683648548089 172.22058306941278 16.398143053054113
  endloop
endfacet
facet normal 0.8525727681148988 -6.067567222959897e-14 -0.5226085294643582
  outer loop
    vertex 195.52490963554007 172.22058306941193 8.955875873564981
    vertex 196.2227183780633 166.22058306941204 10.094266653060915
    vertex 195.52490963554007 166.22058306941193 8.955875873565677
  endloop
endfacet
facet normal 0.8525727681148988 -6.067567222959897e-14 -0.5226085294643582
  outer loop
    vertex 196.2227183780633 166.22058306941204 10.094266653060915
    vertex 195.52490963554007 172.22058306941193 8.955875873564981
    vertex 196.2227183780633 172.22058306941204 10.094266653060219
  endloop
endfacet
facet normal -0.6004263841264361 9.284410971817057e-14 0.7996800342917494
  outer loop
    vertex 192.95272388076407 166.2205830694121 10.562009334564204
    vertex 192.18352558230978 172.22058306941204 9.984469652175205
    vertex 192.18352558230978 166.22058306941204 9.984469652175902
  endloop
endfacet
facet normal -0.6004263841264361 9.284410971817057e-14 0.7996800342917494
  outer loop
    vertex 192.18352558230978 172.22058306941204 9.984469652175205
    vertex 192.95272388076407 166.2205830694121 10.562009334564204
    vertex 192.95272388076407 172.2205830694121 10.562009334563506
  endloop
endfacet
facet normal -0.9992282855102218 -4.5603442124488754e-15 -0.03927891847165375
  outer loop
    vertex 193.73016538238153 166.2205830694124 13.238133966922756
    vertex 193.7679470977746 172.22058306941233 12.276993483304278
    vertex 193.7679470977746 166.2205830694123 12.276993483304974
  endloop
endfacet
facet normal -0.9992282855102218 -4.5603442124488754e-15 -0.03927891847165375
  outer loop
    vertex 193.7679470977746 172.22058306941233 12.276993483304278
    vertex 193.73016538238153 166.2205830694124 13.238133966922756
    vertex 193.73016538238153 172.22058306941244 13.23813396692206
  endloop
endfacet
facet normal 0.9929161275678747 1.3794881677336255e-14 0.11881735401706267
  outer loop
    vertex 196.78997006034479 172.22058306941236 12.686835821717276
    vertex 196.63132013892755 166.2205830694125 14.012619137763973
    vertex 196.78997006034479 166.22058306941236 12.686835821717972
  endloop
endfacet
facet normal 0.9929161275678747 1.3794881677336255e-14 0.11881735401706267
  outer loop
    vertex 196.63132013892755 166.2205830694125 14.012619137763973
    vertex 196.78997006034479 172.22058306941236 12.686835821717276
    vertex 196.63132013892755 172.22058306941253 14.012619137763277
  endloop
endfacet
facet normal -5.358258189514466e-14 1.0598374030242515e-13 1.0
  outer loop
    vertex 194.52165402984247 166.2205830694129 17.339742660522464
    vertex 193.39014305686575 172.2205830694129 17.339742660521768
    vertex 193.39014305686575 166.22058306941292 17.339742660522344
  endloop
endfacet
facet normal -5.358258189514466e-14 1.0598374030242515e-13 1.0
  outer loop
    vertex 193.39014305686575 172.2205830694129 17.339742660521768
    vertex 194.52165402984247 166.2205830694129 17.339742660522464
    vertex 194.52165402984247 172.2205830694129 17.339742660521768
  endloop
endfacet
facet normal 2.9388114278130786e-15 -1.0 1.1477933502124842e-13
  outer loop
    vertex 188.19014324760064 166.22058306941292 17.339742660522344
    vertex 185.39689554786307 166.22058306941267 15.270486354827883
    vertex 188.19014324760064 166.22058306941253 14.137913584709166
  endloop
endfacet
facet normal 2.9388114278130786e-15 -1.0 1.1477933502124842e-13
  outer loop
    vertex 185.39689554786307 166.22058306941267 15.270486354827883
    vertex 188.19014324760064 166.22058306941292 17.339742660522344
    vertex 186.1119214496575 166.22058306941278 16.39814305305481
  endloop
endfacet
facet normal 2.9388114278130786e-15 -1.0 1.1477933502124842e-13
  outer loop
    vertex 186.1119214496575 166.22058306941278 16.39814305305481
    vertex 188.19014324760064 166.22058306941292 17.339742660522344
    vertex 187.05863227462393 166.2205830694129 17.339742660522464
  endloop
endfacet
facet normal 2.324462130174232e-16 1.0 -1.1385896119179868e-13
  outer loop
    vertex 186.05537666892633 172.22058306941193 8.955875873564981
    vertex 194.59261526679614 172.22058306941187 7.999999999999303
    vertex 186.98767103767017 172.22058306941187 7.999999999999303
  endloop
endfacet
facet normal 2.324462130174232e-16 1.0 -1.1385896119179868e-13
  outer loop
    vertex 194.59261526679614 172.22058306941187 7.999999999999303
    vertex 186.05537666892633 172.22058306941193 8.955875873564981
    vertex 195.52490963554007 172.22058306941193 8.955875873564981
  endloop
endfacet
facet normal 2.324462130174232e-16 1.0 -1.1385896119179868e-13
  outer loop
    vertex 195.52490963554007 172.22058306941193 8.955875873564981
    vertex 186.05537666892633 172.22058306941193 8.955875873564981
    vertex 190.30920176720244 172.220583069412 9.680052280425326
  endloop
endfacet
facet normal 2.324462130174232e-16 1.0 -1.1385896119179868e-13
  outer loop
    vertex 190.30920176720244 172.220583069412 9.680052280425326
    vertex 186.05537666892633 172.22058306941193 8.955875873564981
    vertex 184.92880310630423 172.2205830694122 11.358794927596348
  endloop
endfacet
facet normal 2.324462130174232e-16 1.0 -1.1385896119179868e-13
  outer loop
    vertex 190.30920176720244 172.220583069412 9.680052280425326
    vertex 184.92880310630423 172.2205830694122 11.358794927596348
    vertex 189.3967607221566 172.22058306941204 9.984469652175205
  endloop
endfacet
facet normal 2.324462130174232e-16 1.0 -1.1385896119179868e-13
  outer loop
    vertex 189.3967607221566 172.22058306941204 9.984469652175205
    vertex 184.92880310630423 172.2205830694122 11.358794927596348
    vertex 188.62756242370233 172.2205830694121 10.562009334563506
  endloop
endfacet
facet normal 2.324462130174232e-16 1.0 -1.1385896119179868e-13
  outer loop
    vertex 188.62756242370233 172.2205830694121 10.562009334563506
    vertex 184.92880310630423 172.2205830694122 11.358794927596348
    vertex 188.08068170165643 172.2205830694122 11.353299379348057
  endloop
endfacet
facet normal 2.324462130174232e-16 1.0 -1.1385896119179868e-13
  outer loop
    vertex 188.08068170165643 172.2205830694122 11.353299379348057
    vertex 184.92880310630423 172.2205830694122 11.358794927596348
    vertex 187.81233920669183 172.22058306941233 12.276993483304278
  endloop
endfacet
facet normal 2.324462130174232e-16 1.0 -1.1385896119179868e-13
  outer loop
    vertex 187.81233920669183 172.22058306941233 12.276993483304278
    vertex 184.92880310630423 172.2205830694122 11.358794927596348
    vertex 184.79031624412164 172.22058306941236 12.686835821717276
  endloop
endfacet
facet normal 2.324462130174232e-16 1.0 -1.1385896119179868e-13
  outer loop
    vertex 187.81233920669183 172.22058306941233 12.276993483304278
    vertex 184.79031624412164 172.22058306941236 12.686835821717276
    vertex 187.85012092208487 172.22058306941244 13.23813396692206
  endloop
endfacet
facet normal 2.324462130174232e-16 1.0 -1.1385896119179868e-13
  outer loop
    vertex 187.85012092208487 172.22058306941244 13.23813396692206
    vertex 184.79031624412164 172.22058306941236 12.686835821717276
    vertex 184.94896616553888 172.22058306941253 14.012619137763277
  endloop
endfacet
facet normal 2.324462130174232e-16 1.0 -1.1385896119179868e-13
  outer loop
    vertex 187.85012092208487 172.22058306941244 13.23813396692206
    vertex 184.94896616553888 172.22058306941253 14.012619137763277
    vertex 188.19014324760064 172.22058306941253 14.13791358470847
  endloop
endfacet
facet normal 2.324462130174232e-16 1.0 -1.1385896119179868e-13
  outer loop
    vertex 188.19014324760064 172.22058306941253 14.13791358470847
    vertex 184.94896616553888 172.22058306941253 14.012619137763277
    vertex 185.39689554786307 172.22058306941264 15.270486354827186
  endloop
endfacet
facet normal 2.324462130174232e-16 1.0 -1.1385896119179868e-13
  outer loop
    vertex 188.19014324760064 172.22058306941253 14.13791358470847
    vertex 185.39689554786307 172.22058306941264 15.270486354827186
    vertex 188.19014324760064 172.2205830694129 17.339742660521768
  endloop
endfacet
facet normal 2.324462130174232e-16 1.0 -1.1385896119179868e-13
  outer loop
    vertex 188.19014324760064 172.2205830694129 17.339742660521768
    vertex 185.39689554786307 172.22058306941264 15.270486354827186
    vertex 186.1119214496575 172.22058306941278 16.398143053054113
  endloop
endfacet
facet normal 2.324462130174232e-16 1.0 -1.1385896119179868e-13
  outer loop
    vertex 188.19014324760064 172.2205830694129 17.339742660521768
    vertex 186.1119214496575 172.22058306941278 16.398143053054113
    vertex 187.05863227462393 172.2205830694129 17.339742660521768
  endloop
endfacet
facet normal 2.324462130174232e-16 1.0 -1.1385896119179868e-13
  outer loop
    vertex 195.52490963554007 172.22058306941193 8.955875873564981
    vertex 191.27108453726396 172.220583069412 9.680052280425326
    vertex 196.2227183780633 172.22058306941204 10.094266653060219
  endloop
endfacet
facet normal 2.324462130174232e-16 1.0 -1.1385896119179868e-13
  outer loop
    vertex 191.27108453726396 172.220583069412 9.680052280425326
    vertex 195.52490963554007 172.22058306941193 8.955875873564981
    vertex 190.30920176720244 172.220583069412 9.680052280425326
  endloop
endfacet
facet normal 2.324462130174232e-16 1.0 -1.1385896119179868e-13
  outer loop
    vertex 196.2227183780633 172.22058306941204 10.094266653060219
    vertex 191.27108453726396 172.220583069412 9.680052280425326
    vertex 192.18352558230978 172.22058306941204 9.984469652175205
  endloop
endfacet
facet normal 2.324462130174232e-16 1.0 -1.1385896119179868e-13
  outer loop
    vertex 196.2227183780633 172.22058306941204 10.094266653060219
    vertex 192.18352558230978 172.22058306941204 9.984469652175205
    vertex 192.95272388076407 172.2205830694121 10.562009334563506
  endloop
endfacet
facet normal 2.324462130174232e-16 1.0 -1.1385896119179868e-13
  outer loop
    vertex 196.2227183780633 172.22058306941204 10.094266653060219
    vertex 192.95272388076407 172.2205830694121 10.562009334563506
    vertex 196.65148319816217 172.2205830694122 11.358794927596348
  endloop
endfacet
facet normal 2.324462130174232e-16 1.0 -1.1385896119179868e-13
  outer loop
    vertex 196.65148319816217 172.2205830694122 11.358794927596348
    vertex 192.95272388076407 172.2205830694121 10.562009334563506
    vertex 193.49960460280997 172.2205830694122 11.353299379348057
  endloop
endfacet
facet normal 2.324462130174232e-16 1.0 -1.1385896119179868e-13
  outer loop
    vertex 196.65148319816217 172.2205830694122 11.358794927596348
    vertex 193.49960460280997 172.2205830694122 11.353299379348057
    vertex 193.7679470977746 172.22058306941233 12.276993483304278
  endloop
endfacet
facet normal 2.324462130174232e-16 1.0 -1.1385896119179868e-13
  outer loop
    vertex 196.65148319816217 172.2205830694122 11.358794927596348
    vertex 193.7679470977746 172.22058306941233 12.276993483304278
    vertex 196.78997006034479 172.22058306941236 12.686835821717276
  endloop
endfacet
facet normal 2.324462130174232e-16 1.0 -1.1385896119179868e-13
  outer loop
    vertex 196.78997006034479 172.22058306941236 12.686835821717276
    vertex 193.7679470977746 172.22058306941233 12.276993483304278
    vertex 193.73016538238153 172.22058306941244 13.23813396692206
  endloop
endfacet
facet normal 2.324462130174232e-16 1.0 -1.1385896119179868e-13
  outer loop
    vertex 196.78997006034479 172.22058306941236 12.686835821717276
    vertex 193.73016538238153 172.22058306941244 13.23813396692206
    vertex 196.63132013892755 172.22058306941253 14.012619137763277
  endloop
endfacet
facet normal 2.324462130174232e-16 1.0 -1.1385896119179868e-13
  outer loop
    vertex 196.63132013892755 172.22058306941253 14.012619137763277
    vertex 193.73016538238153 172.22058306941244 13.23813396692206
    vertex 193.39014305686575 172.22058306941253 14.13791358470847
  endloop
endfacet
facet normal 2.324462130174232e-16 1.0 -1.1385896119179868e-13
  outer loop
    vertex 196.63132013892755 172.22058306941253 14.012619137763277
    vertex 193.39014305686575 172.22058306941253 14.13791358470847
    vertex 196.18339075660333 172.22058306941264 15.270486354827186
  endloop
endfacet
facet normal 2.324462130174232e-16 1.0 -1.1385896119179868e-13
  outer loop
    vertex 196.18339075660333 172.22058306941264 15.270486354827186
    vertex 193.39014305686575 172.22058306941253 14.13791358470847
    vertex 193.39014305686575 172.2205830694129 17.339742660521768
  endloop
endfacet
facet normal 2.324462130174232e-16 1.0 -1.1385896119179868e-13
  outer loop
    vertex 196.18339075660333 172.22058306941264 15.270486354827186
    vertex 193.39014305686575 172.2205830694129 17.339742660521768
    vertex 195.4683648548089 172.22058306941278 16.398143053054113
  endloop
endfacet
facet normal 2.324462130174232e-16 1.0 -1.1385896119179868e-13
  outer loop
    vertex 195.4683648548089 172.22058306941278 16.398143053054113
    vertex 193.39014305686575 172.2205830694129 17.339742660521768
    vertex 194.52165402984247 172.2205830694129 17.339742660521768
  endloop
endfacet
facet normal -0.3164807180788686 1.10133829264805e-13 0.9485989432232591
  outer loop
    vertex 192.18352558230978 166.22058306941204 9.984469652175902
    vertex 191.27108453726396 172.220583069412 9.680052280425326
    vertex 191.27108453726396 166.22058306941204 9.680052280426022
  endloop
endfacet
facet normal -0.3164807180788686 1.10133829264805e-13 0.9485989432232591
  outer loop
    vertex 191.27108453726396 172.220583069412 9.680052280425326
    vertex 192.18352558230978 166.22058306941204 9.984469652175902
    vertex 192.18352558230978 172.22058306941204 9.984469652175205
  endloop
endfacet
facet normal 0.8226470742778688 6.600982373806842e-14 0.5685523645030974
  outer loop
    vertex 188.62756242370233 172.2205830694121 10.562009334563506
    vertex 188.08068170165643 166.22058306941219 11.353299379348753
    vertex 188.62756242370233 166.2205830694121 10.562009334564204
  endloop
endfacet
facet normal 0.8226470742778688 6.600982373806842e-14 0.5685523645030974
  outer loop
    vertex 188.08068170165643 166.22058306941219 11.353299379348753
    vertex 188.62756242370233 172.2205830694121 10.562009334563506
    vertex 188.08068170165643 172.2205830694122 11.353299379348057
  endloop
endfacet
facet normal -3.2948046194640843e-31 -1.0 1.1642994082200402e-13
  outer loop
    vertex 195.52490963554007 166.22058306941193 8.955875873565677
    vertex 186.98767103767017 166.22058306941182 8.0
    vertex 194.59261526679614 166.22058306941182 8.0
  endloop
endfacet
facet normal -3.2948046194640843e-31 -1.0 1.1642994082200402e-13
  outer loop
    vertex 186.98767103767017 166.22058306941182 8.0
    vertex 195.52490963554007 166.22058306941193 8.955875873565677
    vertex 186.05537666892633 166.22058306941193 8.955875873565677
  endloop
endfacet
facet normal -3.2948046194640843e-31 -1.0 1.1642994082200402e-13
  outer loop
    vertex 186.05537666892633 166.22058306941193 8.955875873565677
    vertex 195.52490963554007 166.22058306941193 8.955875873565677
    vertex 196.2227183780633 166.22058306941204 10.094266653060915
  endloop
endfacet
facet normal -3.2948046194640843e-31 -1.0 1.1642994082200402e-13
  outer loop
    vertex 186.05537666892633 166.22058306941193 8.955875873565677
    vertex 196.2227183780633 166.22058306941204 10.094266653060915
    vertex 191.27108453726396 166.22058306941204 9.680052280426022
  endloop
endfacet
facet normal -3.2948046194640843e-31 -1.0 1.1642994082200402e-13
  outer loop
    vertex 191.27108453726396 166.22058306941204 9.680052280426022
    vertex 196.2227183780633 166.22058306941204 10.094266653060915
    vertex 192.18352558230978 166.22058306941204 9.984469652175902
  endloop
endfacet
facet normal -3.2948046194640843e-31 -1.0 1.1642994082200402e-13
  outer loop
    vertex 192.18352558230978 166.22058306941204 9.984469652175902
    vertex 196.2227183780633 166.22058306941204 10.094266653060915
    vertex 192.95272388076407 166.2205830694121 10.562009334564204
  endloop
endfacet
facet normal -3.2948046194640843e-31 -1.0 1.1642994082200402e-13
  outer loop
    vertex 192.95272388076407 166.2205830694121 10.562009334564204
    vertex 196.2227183780633 166.22058306941204 10.094266653060915
    vertex 196.65148319816217 166.22058306941219 11.358794927597044
  endloop
endfacet
facet normal -3.2948046194640843e-31 -1.0 1.1642994082200402e-13
  outer loop
    vertex 192.95272388076407 166.2205830694121 10.562009334564204
    vertex 196.65148319816217 166.22058306941219 11.358794927597044
    vertex 193.49960460280997 166.22058306941219 11.353299379348753
  endloop
endfacet
facet normal -3.2948046194640843e-31 -1.0 1.1642994082200402e-13
  outer loop
    vertex 193.49960460280997 166.22058306941219 11.353299379348753
    vertex 196.65148319816217 166.22058306941219 11.358794927597044
    vertex 193.7679470977746 166.2205830694123 12.276993483304974
  endloop
endfacet
facet normal -3.2948046194640843e-31 -1.0 1.1642994082200402e-13
  outer loop
    vertex 193.7679470977746 166.2205830694123 12.276993483304974
    vertex 196.65148319816217 166.22058306941219 11.358794927597044
    vertex 196.78997006034479 166.22058306941236 12.686835821717972
  endloop
endfacet
facet normal -3.2948046194640843e-31 -1.0 1.1642994082200402e-13
  outer loop
    vertex 193.7679470977746 166.2205830694123 12.276993483304974
    vertex 196.78997006034479 166.22058306941236 12.686835821717972
    vertex 193.73016538238153 166.2205830694124 13.238133966922756
  endloop
endfacet
facet normal -3.2948046194640843e-31 -1.0 1.1642994082200402e-13
  outer loop
    vertex 193.73016538238153 166.2205830694124 13.238133966922756
    vertex 196.78997006034479 166.22058306941236 12.686835821717972
    vertex 196.63132013892755 166.2205830694125 14.012619137763973
  endloop
endfacet
facet normal -3.2948046194640843e-31 -1.0 1.1642994082200402e-13
  outer loop
    vertex 193.73016538238153 166.2205830694124 13.238133966922756
    vertex 196.63132013892755 166.2205830694125 14.012619137763973
    vertex 193.39014305686575 166.22058306941253 14.137913584709166
  endloop
endfacet
facet normal -3.2948046194640843e-31 -1.0 1.1642994082200402e-13
  outer loop
    vertex 193.39014305686575 166.22058306941253 14.137913584709166
    vertex 196.63132013892755 166.2205830694125 14.012619137763973
    vertex 196.18339075660333 166.22058306941267 15.270486354827883
  endloop
endfacet
facet normal -3.2948046194640843e-31 -1.0 1.1642994082200402e-13
  outer loop
    vertex 186.05537666892633 166.22058306941193 8.955875873565677
    vertex 190.30920176720244 166.22058306941204 9.680052280426022
    vertex 185.3575679264031 166.22058306941204 10.094266653060915
  endloop
endfacet
facet normal -3.2948046194640843e-31 -1.0 1.1642994082200402e-13
  outer loop
    vertex 190.30920176720244 166.22058306941204 9.680052280426022
    vertex 186.05537666892633 166.22058306941193 8.955875873565677
    vertex 191.27108453726396 166.22058306941204 9.680052280426022
  endloop
endfacet
facet normal -3.2948046194640843e-31 -1.0 1.1642994082200402e-13
  outer loop
    vertex 185.3575679264031 166.22058306941204 10.094266653060915
    vertex 190.30920176720244 166.22058306941204 9.680052280426022
    vertex 189.3967607221566 166.22058306941204 9.984469652175902
  endloop
endfacet
facet normal -3.2948046194640843e-31 -1.0 1.1642994082200402e-13
  outer loop
    vertex 185.3575679264031 166.22058306941204 10.094266653060915
    vertex 189.3967607221566 166.22058306941204 9.984469652175902
    vertex 188.62756242370233 166.2205830694121 10.562009334564204
  endloop
endfacet
facet normal -3.2948046194640843e-31 -1.0 1.1642994082200402e-13
  outer loop
    vertex 185.3575679264031 166.22058306941204 10.094266653060915
    vertex 188.62756242370233 166.2205830694121 10.562009334564204
    vertex 184.92880310630423 166.22058306941219 11.358794927597044
  endloop
endfacet
facet normal -3.2948046194640843e-31 -1.0 1.1642994082200402e-13
  outer loop
    vertex 184.92880310630423 166.22058306941219 11.358794927597044
    vertex 188.62756242370233 166.2205830694121 10.562009334564204
    vertex 188.08068170165643 166.22058306941219 11.353299379348753
  endloop
endfacet
facet normal -3.2948046194640843e-31 -1.0 1.1642994082200402e-13
  outer loop
    vertex 184.92880310630423 166.22058306941219 11.358794927597044
    vertex 188.08068170165643 166.22058306941219 11.353299379348753
    vertex 187.81233920669183 166.2205830694123 12.276993483304974
  endloop
endfacet
facet normal -3.2948046194640843e-31 -1.0 1.1642994082200402e-13
  outer loop
    vertex 184.92880310630423 166.22058306941219 11.358794927597044
    vertex 187.81233920669183 166.2205830694123 12.276993483304974
    vertex 184.79031624412164 166.22058306941236 12.686835821717972
  endloop
endfacet
facet normal -3.2948046194640843e-31 -1.0 1.1642994082200402e-13
  outer loop
    vertex 184.79031624412164 166.22058306941236 12.686835821717972
    vertex 187.81233920669183 166.2205830694123 12.276993483304974
    vertex 187.85012092208487 166.2205830694124 13.238133966922756
  endloop
endfacet
facet normal -3.2948046194640843e-31 -1.0 1.1642994082200402e-13
  outer loop
    vertex 184.79031624412164 166.22058306941236 12.686835821717972
    vertex 187.85012092208487 166.2205830694124 13.238133966922756
    vertex 184.94896616553888 166.2205830694125 14.012619137763973
  endloop
endfacet
facet normal -3.2948046194640843e-31 -1.0 1.1642994082200402e-13
  outer loop
    vertex 184.94896616553888 166.2205830694125 14.012619137763973
    vertex 187.85012092208487 166.2205830694124 13.238133966922756
    vertex 188.19014324760064 166.22058306941253 14.137913584709166
  endloop
endfacet
facet normal -3.2948046194640843e-31 -1.0 1.1642994082200402e-13
  outer loop
    vertex 184.94896616553888 166.2205830694125 14.012619137763973
    vertex 188.19014324760064 166.22058306941253 14.137913584709166
    vertex 185.39689554786307 166.22058306941267 15.270486354827883
  endloop
endfacet
facet normal -1.0 0.0 0.0
  outer loop
    vertex 193.39014305686575 166.22058306941292 17.339742660522344
    vertex 193.39014305686575 172.22058306941253 14.13791358470847
    vertex 193.39014305686575 166.22058306941253 14.137913584709166
  endloop
endfacet
facet normal -1.0 0.0 0.0
  outer loop
    vertex 193.39014305686575 172.22058306941253 14.13791358470847
    vertex 193.39014305686575 166.22058306941292 17.339742660522344
    vertex 193.39014305686575 172.2205830694129 17.339742660521768
  endloop
endfacet
facet normal 0.6004263841264361 9.284410971817057e-14 0.7996800342917494
  outer loop
    vertex 189.3967607221566 166.22058306941204 9.984469652175902
    vertex 188.62756242370233 172.2205830694121 10.562009334563506
    vertex 188.62756242370233 166.2205830694121 10.562009334564204
  endloop
endfacet
facet normal 0.6004263841264361 9.284410971817057e-14 0.7996800342917494
  outer loop
    vertex 188.62756242370233 172.2205830694121 10.562009334563506
    vertex 189.3967607221566 166.22058306941204 9.984469652175902
    vertex 189.3967607221566 172.22058306941204 9.984469652175205
  endloop
endfacet
facet normal -0.9354358008411805 -4.1041513915141147e-14 -0.3534966230455667
  outer loop
    vertex 193.39014305686575 166.22058306941253 14.137913584709166
    vertex 193.73016538238153 172.22058306941244 13.23813396692206
    vertex 193.73016538238153 166.2205830694124 13.238133966922756
  endloop
endfacet
facet normal -0.9354358008411805 -4.1041513915141147e-14 -0.3534966230455667
  outer loop
    vertex 193.73016538238153 172.22058306941244 13.23813396692206
    vertex 193.39014305686575 166.22058306941253 14.137913584709166
    vertex 193.39014305686575 172.22058306941253 14.13791358470847
  endloop
endfacet
facet normal 0.9946068827678791 -1.2041669136597732e-14 -0.10371667537461218
  outer loop
    vertex 196.65148319816217 172.2205830694122 11.358794927596348
    vertex 196.78997006034479 166.22058306941236 12.686835821717972
    vertex 196.65148319816217 166.22058306941219 11.358794927597044
  endloop
endfacet
facet normal 0.9946068827678791 -1.2041669136597732e-14 -0.10371667537461218
  outer loop
    vertex 196.78997006034479 166.22058306941236 12.686835821717972
    vertex 196.65148319816217 172.2205830694122 11.358794927596348
    vertex 196.78997006034479 172.22058306941236 12.686835821717276
  endloop
endfacet
facet normal 0.9354358008411805 -4.1041513915141147e-14 -0.3534966230455667
  outer loop
    vertex 187.85012092208487 172.22058306941244 13.23813396692206
    vertex 188.19014324760064 166.22058306941253 14.137913584709166
    vertex 187.85012092208487 166.2205830694124 13.238133966922756
  endloop
endfacet
facet normal 0.9354358008411805 -4.1041513915141147e-14 -0.3534966230455667
  outer loop
    vertex 188.19014324760064 166.22058306941253 14.137913584709166
    vertex 187.85012092208487 172.22058306941244 13.23813396692206
    vertex 188.19014324760064 172.22058306941253 14.13791358470847
  endloop
endfacet
facet normal -2.9388114278130743e-15 -1.0 1.147793350212484e-13
  outer loop
    vertex 196.18339075660333 166.22058306941267 15.270486354827883
    vertex 193.39014305686575 166.22058306941292 17.339742660522344
    vertex 193.39014305686575 166.22058306941253 14.137913584709166
  endloop
endfacet
facet normal -2.9388114278130743e-15 -1.0 1.147793350212484e-13
  outer loop
    vertex 193.39014305686575 166.22058306941292 17.339742660522344
    vertex 196.18339075660333 166.22058306941267 15.270486354827883
    vertex 195.4683648548089 166.22058306941278 16.39814305305481
  endloop
endfacet
facet normal -2.9388114278130743e-15 -1.0 1.147793350212484e-13
  outer loop
    vertex 193.39014305686575 166.22058306941292 17.339742660522344
    vertex 195.4683648548089 166.22058306941278 16.39814305305481
    vertex 194.52165402984247 166.2205830694129 17.339742660522464
  endloop
endfacet
facet normal 0.0 1.0 -1.1610157280017575e-13
  outer loop
    vertex 184.92880310630423 172.2205830694122 11.358794927596348
    vertex 186.05537666892633 172.22058306941193 8.955875873564981
    vertex 185.3575679264031 172.22058306941204 10.094266653060219
  endloop
endfacet
facet normal 0.9992282855102218 -4.5603442124488754e-15 -0.03927891847165375
  outer loop
    vertex 187.81233920669183 172.22058306941233 12.276993483304278
    vertex 187.85012092208487 166.2205830694124 13.238133966922756
    vertex 187.81233920669183 166.2205830694123 12.276993483304974
  endloop
endfacet
facet normal 0.9992282855102218 -4.5603442124488754e-15 -0.03927891847165375
  outer loop
    vertex 187.85012092208487 166.2205830694124 13.238133966922756
    vertex 187.81233920669183 172.22058306941233 12.276993483304278
    vertex 187.85012092208487 172.22058306941244 13.23813396692206
  endloop
endfacet
facet normal 0.3164807180788686 1.10133829264805e-13 0.9485989432232591
  outer loop
    vertex 190.30920176720244 166.22058306941204 9.680052280426022
    vertex 189.3967607221566 172.22058306941204 9.984469652175205
    vertex 189.3967607221566 166.22058306941204 9.984469652175902
  endloop
endfacet
facet normal 0.3164807180788686 1.10133829264805e-13 0.9485989432232591
  outer loop
    vertex 189.3967607221566 172.22058306941204 9.984469652175205
    vertex 190.30920176720244 166.22058306941204 9.680052280426022
    vertex 190.30920176720244 172.220583069412 9.680052280425326
  endloop
endfacet
facet normal -0.9602979887538075 3.2389586545114637e-14 0.2789762943251498
  outer loop
    vertex 193.7679470977746 166.2205830694123 12.276993483304974
    vertex 193.49960460280997 172.2205830694122 11.353299379348057
    vertex 193.49960460280997 166.22058306941219 11.353299379348753
  endloop
endfacet
facet normal -0.9602979887538075 3.2389586545114637e-14 0.2789762943251498
  outer loop
    vertex 193.49960460280997 172.2205830694122 11.353299379348057
    vertex 193.7679470977746 166.2205830694123 12.276993483304974
    vertex 193.7679470977746 172.22058306941233 12.276993483304278
  endloop
endfacet
facet normal 0.9602979887538075 3.2389586545114637e-14 0.2789762943251498
  outer loop
    vertex 188.08068170165643 172.2205830694122 11.353299379348057
    vertex 187.81233920669183 166.2205830694123 12.276993483304974
    vertex 188.08068170165643 166.22058306941219 11.353299379348753
  endloop
endfacet
facet normal 0.9602979887538075 3.2389586545114637e-14 0.2789762943251498
  outer loop
    vertex 187.81233920669183 166.2205830694123 12.276993483304974
    vertex 188.08068170165643 172.2205830694122 11.353299379348057
    vertex 187.81233920669183 172.22058306941233 12.276993483304278
  endloop
endfacet
facet normal 0.7158820642886458 -8.113129013408733e-14 -0.6982212185474079
  outer loop
    vertex 194.59261526679614 172.22058306941187 7.999999999999303
    vertex 195.52490963554007 166.22058306941193 8.955875873565677
    vertex 194.59261526679614 166.22058306941182 8.0
  endloop
endfacet
facet normal 0.7158820642886458 -8.113129013408733e-14 -0.6982212185474079
  outer loop
    vertex 195.52490963554007 166.22058306941193 8.955875873565677
    vertex 194.59261526679614 172.22058306941187 7.999999999999303
    vertex 195.52490963554007 172.22058306941193 8.955875873564981
  endloop
endfacet
facet normal 5.358258189514466e-14 1.0598374030242517e-13 1.0
  outer loop
    vertex 188.19014324760064 166.22058306941292 17.339742660522344
    vertex 187.05863227462393 172.2205830694129 17.339742660521768
    vertex 187.05863227462393 166.2205830694129 17.339742660522464
  endloop
endfacet
facet normal 5.358258189514466e-14 1.0598374030242517e-13 1.0
  outer loop
    vertex 187.05863227462393 172.2205830694129 17.339742660521768
    vertex 188.19014324760064 166.22058306941292 17.339742660522344
    vertex 188.19014324760064 172.2205830694129 17.339742660521768
  endloop
endfacet
endsolid Benchy Barge
